<svg width="168" height="36" viewBox="0 0 168 36" fill="none" xmlns="http://www.w3.org/2000/svg">
<path d="M69.2799 3.14562L72.2037 11.4008L75.1118 3.14562H78.1918V14.5278H75.8388V11.4165L76.0733 6.04589L73.001 14.5278H71.3906L68.3262 6.05371L68.5607 11.4165V14.5278H66.2155V3.14562H69.2799ZM86.8067 12.1826H82.6947L81.9129 14.5278H79.4192L83.6562 3.14562H85.8295L90.09 14.5278H87.5962L86.8067 12.1826ZM83.3279 10.283H86.1735L84.7429 6.02244L83.3279 10.283ZM98.783 5.04526H95.2964V14.5278H92.9512V5.04526H89.5115V3.14562H98.783V5.04526ZM108.821 5.04526H105.334V14.5278H102.989V5.04526H99.5491V3.14562H108.821V5.04526ZM114.379 10.3611H112.51V14.5278H110.165V3.14562H114.394C115.739 3.14562 116.776 3.44528 117.506 4.04462C118.235 4.64396 118.6 5.49085 118.6 6.5853C118.6 7.36183 118.431 8.01068 118.092 8.53184C117.759 9.0478 117.25 9.45951 116.568 9.767L119.03 14.4184V14.5278H116.513L114.379 10.3611ZM112.51 8.46149H114.402C114.991 8.46149 115.447 8.31295 115.77 8.01589C116.093 7.71362 116.255 7.29929 116.255 6.77292C116.255 6.23612 116.101 5.81397 115.794 5.50649C115.492 5.199 115.025 5.04526 114.394 5.04526H112.51V8.46149ZM127.239 9.59502H122.736V12.6438H128.02V14.5278H120.39V3.14562H128.005V5.04526H122.736V7.75791H127.239V9.59502ZM135.298 11.5416C135.298 11.0986 135.142 10.7598 134.829 10.5253C134.517 10.2856 133.954 10.0354 133.141 9.77482C132.328 9.50902 131.684 9.24844 131.21 8.99307C129.917 8.29471 129.271 7.35401 129.271 6.17097C129.271 5.556 129.443 5.00878 129.787 4.52931C130.136 4.04462 130.634 3.66678 131.28 3.39577C131.932 3.12477 132.661 2.98927 133.469 2.98927C134.282 2.98927 135.006 3.1378 135.642 3.43486C136.278 3.72671 136.771 4.14104 137.12 4.67784C137.474 5.21464 137.651 5.8244 137.651 6.50712H135.306C135.306 5.98596 135.142 5.58206 134.814 5.29542C134.485 5.00356 134.024 4.85764 133.43 4.85764C132.857 4.85764 132.411 4.98011 132.093 5.22506C131.775 5.46479 131.616 5.7827 131.616 6.17879C131.616 6.54881 131.801 6.85891 132.171 7.10907C132.547 7.35922 133.096 7.59375 133.821 7.81264C135.155 8.21393 136.127 8.71164 136.737 9.30577C137.347 9.8999 137.651 10.64 137.651 11.5259C137.651 12.5109 137.279 13.2849 136.534 13.8477C135.788 14.4054 134.785 14.6842 133.524 14.6842C132.648 14.6842 131.851 14.5252 131.132 14.2073C130.412 13.8842 129.863 13.4438 129.482 12.8862C129.107 12.3285 128.919 11.6823 128.919 10.9474H131.272C131.272 12.2034 132.023 12.8314 133.524 12.8314C134.081 12.8314 134.517 12.7194 134.829 12.4953C135.142 12.266 135.298 11.9481 135.298 11.5416ZM145.148 11.5416C145.148 11.0986 144.992 10.7598 144.679 10.5253C144.367 10.2856 143.804 10.0354 142.991 9.77482C142.178 9.50902 141.534 9.24844 141.06 8.99307C139.767 8.29471 139.121 7.35401 139.121 6.17097C139.121 5.556 139.293 5.00878 139.637 4.52931C139.986 4.04462 140.484 3.66678 141.13 3.39577C141.782 3.12477 142.511 2.98927 143.319 2.98927C144.132 2.98927 144.856 3.1378 145.492 3.43486C146.128 3.72671 146.621 4.14104 146.97 4.67784C147.324 5.21464 147.501 5.8244 147.501 6.50712H145.156C145.156 5.98596 144.992 5.58206 144.664 5.29542C144.335 5.00356 143.874 4.85764 143.28 4.85764C142.707 4.85764 142.261 4.98011 141.943 5.22506C141.625 5.46479 141.466 5.7827 141.466 6.17879C141.466 6.54881 141.651 6.85891 142.021 7.10907C142.397 7.35922 142.946 7.59375 143.671 7.81264C145.005 8.21393 145.977 8.71164 146.587 9.30577C147.197 9.8999 147.501 10.64 147.501 11.5259C147.501 12.5109 147.129 13.2849 146.384 13.8477C145.638 14.4054 144.635 14.6842 143.374 14.6842C142.498 14.6842 141.701 14.5252 140.982 14.2073C140.262 13.8842 139.713 13.4438 139.332 12.8862C138.957 12.3285 138.769 11.6823 138.769 10.9474H141.122C141.122 12.2034 141.873 12.8314 143.374 12.8314C143.931 12.8314 144.367 12.7194 144.679 12.4953C144.992 12.266 145.148 11.9481 145.148 11.5416Z" fill="#52C3CA"/>
<path d="M75.1508 26.7364C75.0622 27.9611 74.6088 28.9253 73.7906 29.6288C72.9776 30.3324 71.904 30.6842 70.5698 30.6842C69.1106 30.6842 67.9614 30.1943 67.1223 29.2145C66.2885 28.2295 65.8715 26.8797 65.8715 25.1651V24.4693C65.8715 23.3749 66.0644 22.4107 66.45 21.5768C66.8357 20.743 67.3855 20.1046 68.0995 19.6616C68.8187 19.2134 69.6526 18.9893 70.6011 18.9893C71.9144 18.9893 72.9724 19.3411 73.775 20.0446C74.5776 20.7482 75.0414 21.7358 75.1665 23.0074H72.8212C72.7639 22.2726 72.5581 21.741 72.2037 21.4127C71.8545 21.0791 71.3203 20.9124 70.6011 20.9124C69.8193 20.9124 69.233 21.1938 68.8422 21.7566C68.4565 22.3143 68.2585 23.182 68.248 24.3599V25.2198C68.248 26.4497 68.433 27.3487 68.8031 27.9168C69.1783 28.4849 69.7672 28.7689 70.5698 28.7689C71.2942 28.7689 71.8336 28.6047 72.188 28.2764C72.5476 27.9429 72.7535 27.4295 72.8056 26.7364H75.1508ZM86.0406 25.0947C86.0406 26.2152 85.8425 27.1976 85.4464 28.0419C85.0503 28.8862 84.4823 29.5376 83.7422 29.9962C83.0074 30.4549 82.1631 30.6842 81.2094 30.6842C80.2661 30.6842 79.4244 30.4575 78.6843 30.0041C77.9443 29.5506 77.371 28.9044 76.9645 28.0653C76.558 27.221 76.3521 26.2517 76.3469 25.1572V24.5944C76.3469 23.4739 76.5476 22.4889 76.9489 21.6394C77.3554 20.7847 77.926 20.1306 78.6609 19.6772C79.4009 19.2186 80.2452 18.9893 81.1937 18.9893C82.1423 18.9893 82.9839 19.2186 83.7188 19.6772C84.4588 20.1306 85.0295 20.7847 85.4308 21.6394C85.8373 22.4889 86.0406 23.4713 86.0406 24.5866V25.0947ZM83.6641 24.5787C83.6641 23.3853 83.4504 22.4785 83.023 21.8583C82.5957 21.2381 81.9859 20.928 81.1937 20.928C80.4068 20.928 79.7996 21.2355 79.3723 21.8505C78.9449 22.4602 78.7286 23.3566 78.7234 24.5397V25.0947C78.7234 26.2569 78.9371 27.1585 79.3644 27.7995C79.7918 28.4406 80.4068 28.7611 81.2094 28.7611C81.9963 28.7611 82.6009 28.4536 83.023 27.8386C83.4452 27.2184 83.6588 26.3168 83.6641 25.1338V24.5787ZM90.8092 19.1456L93.7329 27.4008L96.641 19.1456H99.7211V30.5278H97.3681V27.4165L97.6026 22.0459L94.5303 30.5278H92.9199L89.8555 22.0537L90.09 27.4165V30.5278H87.7448V19.1456H90.8092ZM104.115 26.5175V30.5278H101.769V19.1456H106.21C107.064 19.1456 107.815 19.302 108.461 19.6147C109.112 19.9274 109.613 20.373 109.962 20.9514C110.311 21.5247 110.486 22.1788 110.486 22.9136C110.486 24.0289 110.103 24.9097 109.337 25.5559C108.576 26.197 107.52 26.5175 106.171 26.5175H104.115ZM104.115 24.6178H106.21C106.83 24.6178 107.301 24.4719 107.625 24.1801C107.953 23.8882 108.117 23.4713 108.117 22.9293C108.117 22.3716 107.953 21.9208 107.625 21.5768C107.296 21.2329 106.843 21.0557 106.264 21.0453H104.115V24.6178ZM117.138 28.1826H113.026L112.245 30.5278H109.751L113.988 19.1456H116.161L120.422 30.5278H117.928L117.138 28.1826ZM113.66 26.283H116.505L115.075 22.0224L113.66 26.283ZM125.699 26.3611H123.83V30.5278H121.485V19.1456H125.714C127.059 19.1456 128.096 19.4453 128.825 20.0446C129.555 20.644 129.92 21.4909 129.92 22.5853C129.92 23.3618 129.751 24.0107 129.412 24.5318C129.078 25.0478 128.57 25.4595 127.887 25.767L130.35 30.4184V30.5278H127.833L125.699 26.3611ZM123.83 24.4615H125.722C126.311 24.4615 126.767 24.313 127.09 24.0159C127.413 23.7136 127.575 23.2993 127.575 22.7729C127.575 22.2361 127.421 21.814 127.113 21.5065C126.811 21.199 126.345 21.0453 125.714 21.0453H123.83V24.4615ZM134.204 30.5278H131.859V19.1456H134.204V30.5278ZM142.287 27.5416C142.287 27.0986 142.131 26.7598 141.818 26.5253C141.505 26.2856 140.943 26.0354 140.13 25.7748C139.317 25.509 138.673 25.2484 138.199 24.9931C136.906 24.2947 136.26 23.354 136.26 22.171C136.26 21.556 136.432 21.0088 136.776 20.5293C137.125 20.0446 137.623 19.6668 138.269 19.3958C138.92 19.1248 139.65 18.9893 140.458 18.9893C141.271 18.9893 141.995 19.1378 142.631 19.4349C143.267 19.7267 143.759 20.141 144.109 20.6778C144.463 21.2146 144.64 21.8244 144.64 22.5071H142.295C142.295 21.986 142.131 21.5821 141.802 21.2954C141.474 21.0036 141.013 20.8576 140.419 20.8576C139.846 20.8576 139.4 20.9801 139.082 21.2251C138.764 21.4648 138.605 21.7827 138.605 22.1788C138.605 22.5488 138.79 22.8589 139.16 23.1091C139.535 23.3592 140.085 23.5937 140.81 23.8126C142.144 24.2139 143.116 24.7116 143.726 25.3058C144.335 25.8999 144.64 26.64 144.64 27.5259C144.64 28.5109 144.268 29.2849 143.522 29.8477C142.777 30.4054 141.774 30.6842 140.513 30.6842C139.637 30.6842 138.84 30.5252 138.12 30.2073C137.401 29.8842 136.851 29.4438 136.471 28.8862C136.096 28.3285 135.908 27.6823 135.908 26.9474H138.261C138.261 28.2034 139.012 28.8314 140.513 28.8314C141.07 28.8314 141.505 28.7194 141.818 28.4953C142.131 28.266 142.287 27.9481 142.287 27.5416ZM155.585 25.0947C155.585 26.2152 155.387 27.1976 154.991 28.0419C154.594 28.8862 154.026 29.5376 153.286 29.9962C152.551 30.4549 151.707 30.6842 150.753 30.6842C149.81 30.6842 148.968 30.4575 148.228 30.0041C147.488 29.5506 146.915 28.9044 146.509 28.0653C146.102 27.221 145.896 26.2517 145.891 25.1572V24.5944C145.891 23.4739 146.092 22.4889 146.493 21.6394C146.899 20.7847 147.47 20.1306 148.205 19.6772C148.945 19.2186 149.789 18.9893 150.738 18.9893C151.686 18.9893 152.528 19.2186 153.263 19.6772C154.003 20.1306 154.574 20.7847 154.975 21.6394C155.381 22.4889 155.585 23.4713 155.585 24.5866V25.0947ZM153.208 24.5787C153.208 23.3853 152.994 22.4785 152.567 21.8583C152.14 21.2381 151.53 20.928 150.738 20.928C149.951 20.928 149.344 21.2355 148.916 21.8505C148.489 22.4602 148.273 23.3566 148.268 24.5397V25.0947C148.268 26.2569 148.481 27.1585 148.909 27.7995C149.336 28.4406 149.951 28.7611 150.753 28.7611C151.54 28.7611 152.145 28.4536 152.567 27.8386C152.989 27.2184 153.203 26.3168 153.208 25.1338V24.5787ZM166.545 30.5278H164.199L159.634 23.0387V30.5278H157.289V19.1456H159.634L164.207 26.6504V19.1456H166.545V30.5278Z" fill="#78D6E9"/>
<path d="M9.61386 3.06032L14.8909 23.2667L20.1488 3.06032H27.5175V31H21.8567V23.4394L22.3748 11.7915L16.7907 31H12.9528L7.36871 11.7915L7.88682 23.4394V31H2.24515V3.06032H9.61386Z" fill="#52C3CA"/>
<path d="M51.0053 21.6932C50.8646 24.8786 49.969 27.2901 48.3188 28.9276C46.6685 30.565 44.3402 31.3838 41.3338 31.3838C38.174 31.3838 35.7497 30.3476 34.0611 28.2751C32.3852 26.1899 31.5473 23.2219 31.5473 19.3713V14.6699C31.5473 10.832 32.4172 7.87684 34.157 5.80439C35.8969 3.71915 38.3147 2.67653 41.4106 2.67653C44.4553 2.67653 46.7644 3.52726 48.338 5.22871C49.9243 6.93017 50.8262 9.37361 51.0437 12.559H45.3828C45.3316 10.5889 45.0246 9.23289 44.4617 8.4909C43.9116 7.73612 42.8946 7.35873 41.4106 7.35873C39.901 7.35873 38.8328 7.88963 38.206 8.95145C37.5791 10.0005 37.2465 11.7339 37.2081 14.1518V19.4288C37.2081 22.2049 37.5152 24.111 38.1292 25.1473C38.7561 26.1835 39.8243 26.7016 41.3338 26.7016C42.8178 26.7016 43.8413 26.3434 44.4041 25.627C44.967 24.8978 45.2868 23.5865 45.3636 21.6932H51.0053Z" fill="#78D6E9"/>
<rect x="56.457" y="2.5278" width="1.68528" height="29.4924" fill="#7A9EA7"/>
</svg>
