<svg width="255" height="18" viewBox="0 0 255 18" fill="none" xmlns="http://www.w3.org/2000/svg">
<path d="M220.986 14.5861V17.7064H217.791V14.5861H220.986Z" fill="#5F929F"/>
<path d="M241.6 0.495283V17.7064H238.752V4.80425L233.775 17.7064H231.298L226.296 4.80425V17.7064H223.473V0.495283H226.89L232.586 14.2394L238.183 0.495283H241.6Z" fill="#5F929F"/>
<path d="M247.819 2.50118V7.80071H254.258V9.97996H247.819V15.4033H255.001V17.7064H244.996V0.222878H255.001V2.50118H247.819Z" fill="#5F929F"/>
<path d="M9.17961 8.69222C10.2362 8.90684 11.0865 9.41038 11.7303 10.2028C12.3907 10.9953 12.7209 11.9198 12.7209 12.9764C12.7209 14.4292 12.2339 15.5849 11.2598 16.4434C10.2857 17.2854 8.87419 17.7064 7.02513 17.7064H0.0664062V0.222878H6.90131C8.65131 0.222878 9.98858 0.619104 10.9131 1.41156C11.8541 2.1875 12.3247 3.26062 12.3247 4.6309C12.3247 5.73703 12.0357 6.63679 11.4579 7.33019C10.8801 8.00708 10.1207 8.46109 9.17961 8.69222ZM2.88952 7.75118H6.38127C7.37183 7.75118 8.12301 7.52005 8.6348 7.05778C9.16311 6.59552 9.42726 5.95165 9.42726 5.12618C9.42726 4.31722 9.16311 3.6816 8.6348 3.21934C8.12301 2.75708 7.33881 2.52594 6.28221 2.52594H2.88952V7.75118ZM6.45556 15.3785C7.52867 15.3785 8.35414 15.1392 8.93197 14.6604C9.52631 14.1651 9.82348 13.48 9.82348 12.605C9.82348 11.73 9.52631 11.0448 8.93197 10.5495C8.33763 10.0542 7.50391 9.80661 6.43079 9.80661H2.88952V15.3785H6.45556Z" fill="#5F929F"/>
<path d="M18.1978 2.50118V7.80071H24.6365V9.97996H18.1978V15.4033H25.3794V17.7064H15.3747V0.222878H25.3794V2.50118H18.1978Z" fill="#5F929F"/>
<path d="M39.6101 13.0507C39.6101 13.9092 39.4037 14.7099 38.991 15.4528C38.5783 16.1792 37.9509 16.7653 37.1089 17.2111C36.267 17.6568 35.2351 17.8797 34.0134 17.8797C32.8247 17.8797 31.7599 17.6734 30.8188 17.2606C29.8778 16.8314 29.1266 16.237 28.5653 15.4776C28.004 14.7182 27.682 13.8432 27.5995 12.8526H30.6207C30.7033 13.612 31.0252 14.2642 31.5865 14.809C32.1644 15.3538 32.932 15.6262 33.8896 15.6262C34.7481 15.6262 35.4085 15.395 35.8707 14.9328C36.3495 14.4705 36.5889 13.8762 36.5889 13.1498C36.5889 12.5224 36.4155 12.0106 36.0688 11.6144C35.7221 11.2017 35.2929 10.8797 34.7811 10.6486C34.2693 10.4175 33.5677 10.1533 32.6762 9.85613C31.5865 9.50944 30.695 9.16274 30.0016 8.81604C29.3247 8.46934 28.7469 7.9658 28.2681 7.30543C27.7894 6.64505 27.55 5.7783 27.55 4.70519C27.55 3.76415 27.7811 2.93868 28.2434 2.22877C28.7056 1.51887 29.366 0.974057 30.2245 0.59434C31.083 0.198114 32.0736 0 33.1962 0C34.9792 0 36.3908 0.429245 37.4309 1.28774C38.4875 2.14623 39.0901 3.26887 39.2387 4.65566H36.1927C36.0771 3.99528 35.7634 3.43396 35.2516 2.9717C34.7563 2.49293 34.0712 2.25354 33.1962 2.25354C32.4037 2.25354 31.7681 2.45991 31.2894 2.87264C30.8106 3.26887 30.5712 3.8467 30.5712 4.60613C30.5712 5.20047 30.7363 5.69576 31.0665 6.09198C31.3967 6.4717 31.8094 6.77712 32.3047 7.00826C32.8165 7.22288 33.5099 7.47877 34.3849 7.77594C35.491 8.12264 36.3908 8.4776 37.0842 8.8408C37.7941 9.1875 38.3884 9.69929 38.8672 10.3762C39.3625 11.0531 39.6101 11.9446 39.6101 13.0507Z" fill="#5F929F"/>
<path d="M53.6792 0.222878V2.50118H48.8007V17.7064H45.9528V2.50118H41.0991V0.222878H53.6792Z" fill="#5F929F"/>
<path d="M65.3317 7.55307V9.93043H55.1289V7.55307H65.3317Z" fill="#201B32"/>
<path d="M87.715 0.495283V17.7064H84.8672V4.80425L79.8896 17.7064H77.4132L72.4108 4.80425V17.7064H69.5877V0.495283H73.0051L78.7009 14.2394L84.2976 0.495283H87.715Z" fill="#201B32"/>
<path d="M101.537 13.9175H94.1572L92.8199 17.7064H89.7987L96.2374 0.495283H99.4815L105.895 17.7064H102.874L101.537 13.9175ZM100.744 11.7382L97.8471 3.56604L94.9497 11.7382H100.744Z" fill="#201B32"/>
<path d="M119.234 0.222878V2.50118H114.356V17.7064H111.508V2.50118H106.654V0.222878H119.234Z" fill="#201B32"/>
<path d="M132.584 0.222878V2.50118H127.705V17.7064H124.857V2.50118H120.004V0.222878H132.584Z" fill="#201B32"/>
<path d="M143.878 17.7064L139.519 10.7229H137.513V17.7064H134.69V0.222878H140.857C142.854 0.222878 144.365 0.709906 145.388 1.68396C146.429 2.65802 146.949 3.94576 146.949 5.54717C146.949 6.91745 146.561 8.04009 145.785 8.91509C145.025 9.7901 143.919 10.3514 142.466 10.5991L147.048 17.7064H143.878ZM137.513 8.71698H140.634C142.912 8.71698 144.051 7.70991 144.051 5.69576C144.051 4.73821 143.771 3.99528 143.209 3.46698C142.664 2.92217 141.806 2.64976 140.634 2.64976H137.513V8.71698Z" fill="#201B32"/>
<path d="M152.314 2.50118V7.80071H158.753V9.97996H152.314V15.4033H159.495V17.7064H149.491V0.222878H159.495V2.50118H152.314Z" fill="#201B32"/>
<path d="M173.726 13.0507C173.726 13.9092 173.52 14.7099 173.107 15.4528C172.694 16.1792 172.067 16.7653 171.225 17.2111C170.383 17.6568 169.351 17.8797 168.129 17.8797C166.941 17.8797 165.876 17.6734 164.935 17.2606C163.994 16.8314 163.243 16.237 162.681 15.4776C162.12 14.7182 161.798 13.8432 161.716 12.8526H164.737C164.819 13.612 165.141 14.2642 165.703 14.809C166.28 15.3538 167.048 15.6262 168.006 15.6262C168.864 15.6262 169.525 15.395 169.987 14.9328C170.466 14.4705 170.705 13.8762 170.705 13.1498C170.705 12.5224 170.532 12.0106 170.185 11.6144C169.838 11.2017 169.409 10.8797 168.897 10.6486C168.385 10.4175 167.684 10.1533 166.792 9.85613C165.703 9.50944 164.811 9.16274 164.118 8.81604C163.441 8.46934 162.863 7.9658 162.384 7.30543C161.905 6.64505 161.666 5.7783 161.666 4.70519C161.666 3.76415 161.897 2.93868 162.359 2.22877C162.822 1.51887 163.482 0.974057 164.341 0.59434C165.199 0.198114 166.19 0 167.312 0C169.095 0 170.507 0.429245 171.547 1.28774C172.604 2.14623 173.206 3.26887 173.355 4.65566H170.309C170.193 3.99528 169.879 3.43396 169.368 2.9717C168.872 2.49293 168.187 2.25354 167.312 2.25354C166.52 2.25354 165.884 2.45991 165.405 2.87264C164.927 3.26887 164.687 3.8467 164.687 4.60613C164.687 5.20047 164.852 5.69576 165.183 6.09198C165.513 6.4717 165.925 6.77712 166.421 7.00826C166.933 7.22288 167.626 7.47877 168.501 7.77594C169.607 8.12264 170.507 8.4776 171.2 8.8408C171.91 9.1875 172.504 9.69929 172.983 10.3762C173.479 11.0531 173.726 11.9446 173.726 13.0507Z" fill="#201B32"/>
<path d="M188.043 13.0507C188.043 13.9092 187.837 14.7099 187.424 15.4528C187.011 16.1792 186.384 16.7653 185.542 17.2111C184.7 17.6568 183.668 17.8797 182.446 17.8797C181.258 17.8797 180.193 17.6734 179.252 17.2606C178.311 16.8314 177.559 16.237 176.998 15.4776C176.437 14.7182 176.115 13.8432 176.032 12.8526H179.054C179.136 13.612 179.458 14.2642 180.019 14.809C180.597 15.3538 181.365 15.6262 182.322 15.6262C183.181 15.6262 183.841 15.395 184.304 14.9328C184.782 14.4705 185.022 13.8762 185.022 13.1498C185.022 12.5224 184.848 12.0106 184.502 11.6144C184.155 11.2017 183.726 10.8797 183.214 10.6486C182.702 10.4175 182 10.1533 181.109 9.85613C180.019 9.50944 179.128 9.16274 178.434 8.81604C177.758 8.46934 177.18 7.9658 176.701 7.30543C176.222 6.64505 175.983 5.7783 175.983 4.70519C175.983 3.76415 176.214 2.93868 176.676 2.22877C177.138 1.51887 177.799 0.974057 178.657 0.59434C179.516 0.198114 180.506 0 181.629 0C183.412 0 184.824 0.429245 185.864 1.28774C186.92 2.14623 187.523 3.26887 187.671 4.65566H184.625C184.51 3.99528 184.196 3.43396 183.684 2.9717C183.189 2.49293 182.504 2.25354 181.629 2.25354C180.837 2.25354 180.201 2.45991 179.722 2.87264C179.243 3.26887 179.004 3.8467 179.004 4.60613C179.004 5.20047 179.169 5.69576 179.499 6.09198C179.83 6.4717 180.242 6.77712 180.738 7.00826C181.249 7.22288 181.943 7.47877 182.818 7.77594C183.924 8.12264 184.824 8.4776 185.517 8.8408C186.227 9.1875 186.821 9.69929 187.3 10.3762C187.795 11.0531 188.043 11.9446 188.043 13.0507Z" fill="#201B32"/>
<path d="M193.692 2.50118V7.80071H200.131V9.97996H193.692V15.4033H200.874V17.7064H190.869V0.222878H200.874V2.50118H193.692Z" fill="#201B32"/>
<path d="M215.105 13.0507C215.105 13.9092 214.898 14.7099 214.485 15.4528C214.073 16.1792 213.445 16.7653 212.603 17.2111C211.761 17.6568 210.73 17.8797 209.508 17.8797C208.319 17.8797 207.254 17.6734 206.313 17.2606C205.372 16.8314 204.621 16.237 204.06 15.4776C203.498 14.7182 203.176 13.8432 203.094 12.8526H206.115C206.198 13.612 206.52 14.2642 207.081 14.809C207.659 15.3538 208.426 15.6262 209.384 15.6262C210.243 15.6262 210.903 15.395 211.365 14.9328C211.844 14.4705 212.083 13.8762 212.083 13.1498C212.083 12.5224 211.91 12.0106 211.563 11.6144C211.217 11.2017 210.787 10.8797 210.276 10.6486C209.764 10.4175 209.062 10.1533 208.171 9.85613C207.081 9.50944 206.189 9.16274 205.496 8.81604C204.819 8.46934 204.241 7.9658 203.763 7.30543C203.284 6.64505 203.044 5.7783 203.044 4.70519C203.044 3.76415 203.276 2.93868 203.738 2.22877C204.2 1.51887 204.86 0.974057 205.719 0.59434C206.577 0.198114 207.568 0 208.691 0C210.474 0 211.885 0.429245 212.925 1.28774C213.982 2.14623 214.585 3.26887 214.733 4.65566H211.687C211.572 3.99528 211.258 3.43396 210.746 2.9717C210.251 2.49293 209.566 2.25354 208.691 2.25354C207.898 2.25354 207.263 2.45991 206.784 2.87264C206.305 3.26887 206.066 3.8467 206.066 4.60613C206.066 5.20047 206.231 5.69576 206.561 6.09198C206.891 6.4717 207.304 6.77712 207.799 7.00826C208.311 7.22288 209.004 7.47877 209.879 7.77594C210.985 8.12264 211.885 8.4776 212.579 8.8408C213.289 9.1875 213.883 9.69929 214.362 10.3762C214.857 11.0531 215.105 11.9446 215.105 13.0507Z" fill="#201B32"/>
</svg>
