<?xml version="1.0" encoding="utf-8"?>
<!-- Generator: Adobe Illustrator 23.0.1, SVG Export Plug-In . SVG Version: 6.00 Build 0)  -->
<svg version="1.1" id="Layer_1" xmlns="http://www.w3.org/2000/svg" xmlns:xlink="http://www.w3.org/1999/xlink" x="0px" y="0px"
	 viewBox="0 0 332.7 142.9" style="enable-background:new 0 0 332.7 142.9;" xml:space="preserve">
<style type="text/css">
	.st0{fill:#FF4100;}
</style>
<path class="st0" d="M206.7,142.9c-1.7,0-2.3,0-3.4,0c-2.5,0-3.4-1.2-2.4-3.4c2.2-4.9,4.5-9.8,6.8-14.6c3.1-6.7,6.2-13.5,9.4-20.2
	c0.2-0.4,0.2-1,0-1.4c-3.3-6.7-6.7-13.4-10-20.2c-4.5-9.1-9-18.3-13.5-27.4c-0.1-0.3-0.3-0.6-0.3-0.9c-0.4-1.3,0.2-2.3,1.5-2.3
	c2.3,0,4.3,0,6.7,0c1,0,1.5,0.8,1.9,1.6c1.2,2.6,2.5,5.1,3.7,7.7c4.5,9.3,13.2,27.2,15,31c0.1,0.1,0.2,0.2,0.3,0.2
	c0.2,0,0.3-0.1,0.4-0.2c0.9-1.9,1.7-3.7,2.5-5.6c5-10.9,10-21.8,14.9-32.6c0.5-1.4,1.8-2.3,3.3-2.1c1.3,0,3.1,0,4.5,0
	c1,0,1.8,0.7,1.9,1.7c0,0.3-0.1,0.7-0.2,1c-0.9,2-1.8,4-2.8,6c-12.2,26.5-24.5,53.1-36.7,79.6C209.6,142.2,208.2,143.1,206.7,142.9
	 M308.3,105.4c5.1,0.1,10-1.6,13.9-4.8c0.8-0.6,1.5-1.2,2.2-1.9c0.4,1.3,0.8,2.6,1.2,3.8c0.2,0.9,1.1,1.6,2,1.6c0.1,0,0.2,0,0.3,0
	c0.2,0,0.4,0,0.6,0c0.2,0,0.3,0,0.5,0s0.3,0,0.5,0l0,0c2.1,0,3-0.9,3-3c0-10.1,0-20.3,0-30.4c0-3.8-0.6-7.6-1.7-11.3
	c-1-3.3-3.5-6-6.7-7.1c-2.2-0.8-4.4-1.2-6.7-1.2c-0.5,0-1,0-1.5,0c-4.2,0-8.3,0.6-12.3,1.6c-1.9,0.5-3.8,1.2-5.7,2
	c-0.9,0.3-1.4,1.2-1.1,2.1c0,0,0,0,0,0c0.4,1.5,0.9,2.9,1.4,4.3c0.2,0.5,0.7,0.9,1.2,0.9c0.2,0,0.4,0,0.6-0.1
	c0.3-0.1,0.6-0.2,0.8-0.3c4.7-1.8,9.8-2.7,14.8-2.6c0.4,0,0.8,0,1.2,0c3.6,0.1,5.8,1.7,6.7,5.2c0.7,2.9,0.9,5.8,0.8,8.8
	c-0.5-0.1-0.8-0.2-1.2-0.3c-2.7-0.8-5.6-1.2-8.4-1.3c-0.6,0-1.1,0-1.7,0c-3.6-0.1-7.1,0.6-10.4,2c-4.3,1.7-7.6,5.2-9.1,9.6
	c-0.9,2.9-1.2,6.1-0.6,9.1c0.9,7.7,7.4,13.4,15.1,13.5C308.1,105.4,308.2,105.4,308.3,105.4 M314.2,78.1c3,0,6,0.6,8.8,1.6
	c0.8,0.1,1.3,0.9,1.1,1.6c-0.1,1.3,0,2.7,0,4c0,1.2-0.1,2.4,0,3.6c0.1,1-0.3,2-1,2.7c-3.6,3.7-7.9,5.9-13,5.9c-0.4,0-0.9,0-1.3,0
	c-4.7-0.3-7.9-4-8-8.8c-0.1-5.3,2.7-8.7,7.5-10C310.3,78.3,312.3,78.1,314.2,78.1 M279.4,104.3c0.9,0,1.6-0.7,1.6-1.6c0,0,0,0,0,0
	v-5.5c0-0.9-0.7-1.6-1.6-1.6h-2.3c-3.2,0-4.5-0.6-4.5-4.5v-4.2l0-28V16.8c0-2.7-1.2-3.1-2.5-3.1c-0.7,0-1.4,0-2.1,0
	c-0.6,0-1.1,0-1.7,0.1c-1.6,0-2.6,0.8-2.6,3.2l-0.1,70v5.5c0,11.1,3.6,11.9,13.2,11.9L279.4,104.3 M156.5,105.4
	c5.1,0.1,10-1.6,13.9-4.8c0.8-0.6,1.5-1.2,2.2-1.9c0.4,1.3,0.8,2.6,1.2,3.8c0.2,0.9,1.1,1.6,2,1.6c0.1,0,0.2,0,0.3,0
	c0.2,0,0.4,0,0.6,0c0.2,0,0.3,0,0.5,0s0.3,0,0.5,0h0c2.1,0,3-0.9,3-3c0-10.1,0-20.3,0-30.4c0-3.8-0.6-7.6-1.7-11.3
	c-1-3.3-3.5-6-6.7-7.1c-2.2-0.8-4.4-1.2-6.7-1.2c-0.5,0-1,0-1.5,0c-4.2,0-8.3,0.6-12.3,1.6c-1.9,0.5-3.8,1.2-5.7,2
	c-0.9,0.3-1.4,1.2-1.1,2.1c0,0,0,0,0,0c0.4,1.5,0.9,2.9,1.4,4.3c0.2,0.5,0.7,0.9,1.2,0.9c0.2,0,0.4,0,0.6-0.1
	c0.3-0.1,0.6-0.2,0.8-0.3c4.7-1.8,9.8-2.7,14.8-2.6c0.4,0,0.8,0,1.2,0c3.6,0.1,5.8,1.7,6.7,5.2c0.7,2.9,0.9,5.8,0.8,8.8
	c-0.5-0.1-0.8-0.2-1.2-0.3c-2.7-0.8-5.6-1.2-8.4-1.3c-0.6,0-1.1,0-1.7,0c-3.6-0.1-7.1,0.6-10.4,2c-4.3,1.7-7.6,5.2-9.1,9.6
	c-0.9,2.9-1.2,6.1-0.6,9.1c0.9,7.7,7.4,13.4,15.1,13.5C156.3,105.4,156.4,105.4,156.5,105.4 M162.4,78.1c3,0,6,0.6,8.8,1.6
	c0.8,0.1,1.3,0.9,1.1,1.6c-0.1,1.3,0,2.7,0,4c0,1.2-0.1,2.4,0,3.6c0.1,1-0.3,2-1,2.7c-3.6,3.7-7.9,5.9-13,5.9c-0.4,0-0.9,0-1.3,0
	c-4.7-0.3-7.9-4-8-8.8c-0.1-5.3,2.7-8.7,7.5-10C158.5,78.3,160.4,78.1,162.4,78.1 M127.6,104.3c0.9,0,1.6-0.7,1.6-1.6c0,0,0,0,0,0
	v-5.5c0-0.9-0.7-1.6-1.6-1.6h-2.3c-3.2,0-4.5-0.6-4.5-4.5l0-32.2c0-14,0-42.6,0-42.8c-0.1-1.4-1.2-2.4-2.5-2.4c-0.7,0-1.4,0-2.1,0
	c-0.6,0-1.1,0-1.7,0.1c-1.9,0-2.6,0.8-2.6,2.6l-0.1,76.1c0,11.1,3.6,11.9,13.2,11.9L127.6,104.3"/>
<path class="st0" d="M42.8,116.1c-0.4,0-0.9-0.1-1.2-0.4l-40.4-23C0.4,92.3,0,91.5,0,90.6V68.1c0-1,0.4-2,1.3-2.6L14.4,58L1.2,50.5
	C0.4,50.1,0,49.2,0,48.4V25.8c0-1,0.5-2,1.3-2.6L41.6,0.3c0.8-0.4,1.7-0.4,2.4,0l40.4,22.9c0.9,0.6,1.4,1.5,1.4,2.6v22.5
	c0,0.9-0.5,1.7-1.3,2.1L71.2,58l13.2,7.5c0.9,0.6,1.4,1.5,1.4,2.6v22.5c0,0.9-0.5,1.7-1.3,2.1l-40.5,23
	C43.7,116,43.2,116.1,42.8,116.1 M4.8,71.7v17.5l37.9,21.6l37.9-21.6V71.7L43.8,91.9c-0.3,0.2-0.7,0.3-1.1,0.3
	c-0.4,0-0.8-0.1-1.2-0.3L4.8,71.7 M19.4,60.9L7.5,67.6l35.3,19.3l35.3-19.3l-11.9-6.8L44,73.5c-0.4,0.2-0.8,0.3-1.2,0.3
	c-0.4,0-0.8-0.1-1.2-0.3L19.4,60.9 M4.8,29.5v17.5l37.9,21.6l37.9-21.6V29.5L43.9,49.5c-0.4,0.2-0.8,0.4-1.2,0.4
	c-0.4,0-0.8-0.1-1.1-0.3L4.8,29.5 M42.8,5.3L7.5,25.3l35.3,19.3l35.3-19.3L42.8,5.3"/>
</svg>
