<svg width="3252" height="442" viewBox="0 0 3252 442" fill="none" xmlns="http://www.w3.org/2000/svg">
<path d="M219.85 440.124C94.4307 440.124 0.760742 369.263 0.760742 229.185C0.760742 102.978 88.7776 1.94547 238.584 1.94547C285.287 1.79428 331.728 8.93949 376.229 23.1116L356.509 113.561C319.948 97.9884 280.62 89.9361 240.884 89.8966C166.935 89.8966 112.507 137.159 112.507 221.035C112.507 302.478 159.704 347.308 228.987 347.308C246.097 347.519 263.135 345.034 279.47 339.946V207.231H384.643V409.163C332.155 429.784 276.242 440.288 219.85 440.124V440.124Z" fill="black"/>
<path d="M719.16 432.827V261.921H539.182V432.827H434.009V9.30762H539.182V171.34H719.16V9.30762H824.333V432.827H719.16Z" fill="black"/>
<path d="M1444.07 441.57C1416.12 441.326 1388.28 438.046 1361.05 431.775L1365.12 338.96C1393.75 349.596 1424.11 354.835 1454.65 354.407C1489.69 354.407 1519 338.171 1519 306.356C1519 242.003 1348.82 277.894 1348.82 139.394C1348.82 56.5041 1411.53 1.15662 1528.01 1.15662C1553.91 1.78766 1579.74 3.97657 1605.38 7.72995L1602.09 95.6811C1576.59 88.8645 1550.32 85.3084 1523.93 85.098C1479.1 85.098 1460.37 102.189 1460.37 128.285C1460.37 188.562 1633.84 163.321 1633.84 293.604C1633.84 382.41 1562.19 441.57 1444.07 441.57V441.57Z" fill="black"/>
<path d="M1864.23 98.9021V432.827H1759.06V98.9021H1648.37V9.30762H1974.99V98.9021H1864.23Z" fill="black"/>
<path d="M2179.49 434.471C2148.53 434.471 2093.12 432.827 2027.98 432.827V9.30762C2071.1 9.30762 2140.31 6.87549 2196.58 6.87549C2310.56 6.87549 2357.04 45.9211 2357.04 112.706C2357.5 154.348 2331.16 191.875 2291.83 205.587V206.376C2339.09 219.523 2362.69 255.282 2362.69 300.9C2362.69 364.399 2318.71 434.471 2179.49 434.471V434.471ZM2176.53 80.0366C2163.39 80.0366 2146.36 80.8254 2132.56 80.8254V181.989C2144.72 182.778 2156.94 182.778 2162.66 182.778C2212.36 182.778 2245.75 164.833 2245.75 128.219C2245.42 99.7566 2229.12 80.0366 2176.53 80.0366V80.0366ZM2168.38 247.788C2159.44 247.788 2143.14 247.788 2132.56 248.643V357.037C2147.41 358.805 2162.36 359.64 2177.32 359.535C2228.66 359.535 2252.26 335.871 2252.26 300.9C2251.93 263.433 2220.97 247.919 2168.05 247.919L2168.38 247.788Z" fill="#5FA507"/>
<path d="M2411.6 432.827V9.30762H2672.23V91.54H2516.64V176.27H2664.87V256.07H2516.64V348.952H2672.23V432.827H2411.6Z" fill="#5FA507"/>
<path d="M2868.44 434.996C2811.45 434.996 2765.83 433.353 2726.72 431.71V9.30762C2765.04 8.45309 2839.98 6.87549 2892.11 6.87549C3029.75 6.87549 3120.92 65.5096 3120.92 213.738C3120.92 367.686 3010.95 434.996 2868.44 434.996ZM2881.59 92.1316C2865.02 92.1053 2848.45 92.9138 2831.96 94.5637V344.35C2847.62 346.197 2863.39 347.012 2879.16 346.782C2954.95 346.782 3009.51 303.596 3009.51 218.077C3009.37 135.516 2966.19 92.3945 2881.46 92.3945L2881.59 92.1316Z" fill="#5FA507"/>
<path d="M1311.55 221.889C1311.49 342.51 1212.23 441.727 1091.6 441.727C1012.12 441.727 938.584 398.639 899.729 329.297C899.466 328.87 899.223 328.436 899.006 327.983C881.14 295.596 871.759 259.206 871.727 222.218V217.879C872.818 98.0147 971.733 -0.000244141 1091.6 -0.000244141C1212.23 -0.000244141 1311.49 99.257 1311.49 219.884C1311.49 220.555 1311.49 221.219 1311.48 221.889H1311.55Z" fill="#5FA507"/>
<path d="M1200.99 197.699H1198.95C1187.67 147.722 1142.9 111.924 1091.67 111.924C1040.44 111.924 995.667 147.722 984.394 197.699H981.699C981.311 197.679 980.923 197.666 980.535 197.666C969.209 197.666 959.895 206.981 959.895 218.307C959.895 229.632 969.209 238.947 980.535 238.947C980.923 238.947 981.311 238.934 981.699 238.914H983.013C983.73 243.351 984.716 247.742 985.972 252.061C986.806 256.307 987.221 260.626 987.221 264.951C987.221 298.764 961.644 327.555 928.061 331.532H1091.93C1145.83 331.539 1192.18 291.895 1200.53 238.651H1201.25C1201.64 238.671 1202.02 238.684 1202.41 238.684C1213.74 238.684 1223.05 229.369 1223.05 218.044C1223.05 206.718 1213.74 197.403 1202.41 197.403C1202.02 197.403 1201.64 197.417 1201.25 197.436L1200.99 197.699Z" fill="white"/>
<path d="M1125.65 197.699C1135.13 197.699 1142.81 190.018 1142.81 180.543C1142.81 171.068 1135.13 163.386 1125.65 163.386C1116.18 163.386 1108.5 171.068 1108.5 180.543C1108.5 190.018 1116.18 197.699 1125.65 197.699Z" fill="black"/>
<path d="M1057.36 197.699C1066.83 197.699 1074.51 190.018 1074.51 180.543C1074.51 171.068 1066.83 163.386 1057.36 163.386C1047.88 163.386 1040.2 171.068 1040.2 180.543C1040.2 190.018 1047.88 197.699 1057.36 197.699Z" fill="black"/>
<path d="M3157.87 397.505H3172.12V377.329H3179.43L3190.19 397.505H3205.73L3193.5 375.055C3199.98 372.119 3203.72 366.334 3203.72 358.189C3203.72 346.072 3195.46 338.56 3182.22 338.56H3157.87V397.505ZM3172.12 366.104V350.044H3179.14C3185.53 350.044 3188.95 352.72 3188.95 358.189C3188.95 363.657 3185.53 366.104 3179.14 366.104H3172.12Z" fill="#5FA507"/>
<path d="M3157.87 397.505H3157.36C3157.36 397.784 3157.59 398.011 3157.87 398.011V397.505ZM3172.12 397.505V398.011C3172.4 398.011 3172.62 397.784 3172.62 397.505H3172.12ZM3172.12 377.329V376.822C3171.84 376.822 3171.61 377.049 3171.61 377.329H3172.12ZM3179.43 377.329L3179.87 377.09C3179.79 376.925 3179.61 376.822 3179.43 376.822V377.329ZM3190.19 397.505L3189.75 397.743C3189.83 397.908 3190.01 398.011 3190.19 398.011V397.505ZM3205.73 397.505V398.011C3205.91 398.011 3206.08 397.917 3206.17 397.763C3206.26 397.61 3206.26 397.419 3206.18 397.262L3205.73 397.505ZM3193.5 375.055L3193.29 374.594C3193.16 374.652 3193.07 374.761 3193.02 374.894C3192.98 375.028 3192.99 375.174 3193.06 375.297L3193.5 375.055ZM3157.87 338.56V338.053C3157.59 338.053 3157.36 338.28 3157.36 338.56H3157.87ZM3172.12 366.104H3171.61C3171.61 366.384 3171.84 366.61 3172.12 366.61V366.104ZM3172.12 350.044V349.537C3171.84 349.537 3171.61 349.764 3171.61 350.044H3172.12ZM3157.87 398.011H3172.12V396.998H3157.87V398.011ZM3172.62 397.505V377.329H3171.61V397.505H3172.62ZM3172.12 377.835H3179.43V376.822H3172.12V377.835ZM3178.98 377.567L3189.75 397.743L3190.64 397.266L3179.87 377.09L3178.98 377.567ZM3190.19 398.011H3205.73V396.998H3190.19V398.011ZM3206.18 397.262L3193.95 374.813L3193.06 375.297L3205.29 397.747L3206.18 397.262ZM3193.71 375.516C3200.38 372.492 3204.23 366.516 3204.23 358.189H3203.21C3203.21 366.152 3199.57 371.747 3193.29 374.594L3193.71 375.516ZM3204.23 358.189C3204.23 352.01 3202.12 346.959 3198.28 343.456C3194.44 339.959 3188.93 338.053 3182.22 338.053V339.066C3188.75 339.066 3193.99 340.917 3197.59 344.205C3201.19 347.488 3203.21 352.251 3203.21 358.189H3204.23ZM3182.22 338.053H3157.87V339.066H3182.22V338.053ZM3157.36 338.56V397.505H3158.38V338.56H3157.36ZM3172.62 366.104V350.044H3171.61V366.104H3172.62ZM3172.12 350.55H3179.14V349.537H3172.12V350.55ZM3179.14 350.55C3182.28 350.55 3184.59 351.209 3186.12 352.458C3187.63 353.691 3188.45 355.566 3188.45 358.189H3189.46C3189.46 355.343 3188.56 353.145 3186.76 351.673C3184.98 350.217 3182.39 349.537 3179.14 349.537V350.55ZM3188.45 358.189C3188.45 360.81 3187.63 362.623 3186.13 363.798C3184.6 364.993 3182.28 365.597 3179.14 365.597V366.61C3182.38 366.61 3184.97 365.992 3186.76 364.596C3188.56 363.181 3189.46 361.036 3189.46 358.189H3188.45ZM3179.14 365.597H3172.12V366.61H3179.14V365.597Z" fill="#5FA507"/>
<path d="M3182.64 427.826C3216.72 427.826 3244.35 401.759 3244.35 369.604C3244.35 337.45 3216.72 311.383 3182.64 311.383C3148.55 311.383 3120.92 337.45 3120.92 369.604C3120.92 401.759 3148.55 427.826 3182.64 427.826Z" stroke="#5FA507" stroke-width="13.9741" stroke-miterlimit="1.5" stroke-linecap="round" stroke-linejoin="round"/>
</svg>
