<svg width="90" height="35" viewBox="0 0 90 35" fill="none" xmlns="http://www.w3.org/2000/svg">
<g clip-path="url(#clip0_85:23)">
<path d="M8.01137 24.737C7.41328 24.452 6.75885 24.3051 6.09637 24.307C5.55448 24.2855 5.0138 24.3731 4.50637 24.5644C3.99894 24.7558 3.53509 25.0471 3.1423 25.421C2.74952 25.795 2.43579 26.2439 2.21972 26.7413C2.00364 27.2388 1.88961 27.7745 1.88439 28.3168C1.87917 28.8591 1.98286 29.3969 2.18931 29.8984C2.39577 30.3998 2.70079 30.8548 3.0863 31.2362C3.47182 31.6176 3.92997 31.9178 4.43362 32.1189C4.93727 32.32 5.47617 32.4179 6.01837 32.407C6.7498 32.4012 7.47071 32.2321 8.12837 31.912C8.43333 31.7628 8.72534 31.5886 9.00137 31.391V33.41C8.87338 33.4644 8.75111 33.5314 8.63637 33.61C7.81544 33.984 6.92023 34.1666 6.01837 34.144C5.23794 34.1854 4.4573 34.0664 3.7247 33.7942C2.99209 33.5221 2.3231 33.1025 1.75906 32.5616C1.19503 32.0206 0.747949 31.3697 0.445452 30.649C0.142956 29.9284 -0.00852632 29.1534 0.000370342 28.3719C0.000370342 25.0239 2.60537 22.588 6.18837 22.588C6.80401 22.5854 7.41731 22.6641 8.01237 22.822C8.38584 22.9187 8.73881 23.082 9.05437 23.304V25.427C8.73769 25.1537 8.38755 24.9218 8.01237 24.737" fill="#060606"/>
<path d="M19.2928 34.234C18.1472 34.2098 17.0341 33.8485 16.0927 33.1954C15.1512 32.5422 14.4231 31.6261 13.9993 30.5615C13.5755 29.4969 13.4749 28.331 13.7099 27.2095C13.9449 26.088 14.5052 25.0607 15.3208 24.2558C16.1363 23.4509 17.171 22.9042 18.2955 22.684C19.42 22.4638 20.5844 22.5798 21.6434 23.0176C22.7023 23.4554 23.6087 24.1955 24.2494 25.1455C24.8901 26.0955 25.2367 27.2132 25.2458 28.359C25.2493 29.1381 25.0972 29.9101 24.7984 30.6296C24.4995 31.3492 24.0599 32.0017 23.5053 32.549C22.9508 33.0963 22.2925 33.5272 21.5691 33.8166C20.8457 34.106 20.0718 34.2479 19.2928 34.234V34.234ZM19.3928 24.36C18.5871 24.3274 17.7899 24.5355 17.1029 24.9577C16.4159 25.3799 15.8702 25.997 15.5353 26.7306C15.2005 27.4641 15.0916 28.2807 15.2226 29.0763C15.3536 29.872 15.7186 30.6106 16.271 31.198C16.8234 31.7854 17.5382 32.1951 18.3242 32.3747C19.1103 32.5543 19.9321 32.4958 20.6848 32.2066C21.4375 31.9174 22.087 31.4106 22.5506 30.7508C23.0142 30.091 23.2708 29.3082 23.2878 28.502C23.3173 27.9711 23.2386 27.4397 23.0565 26.9401C22.8744 26.4405 22.5927 25.9832 22.2284 25.5958C21.8642 25.2084 21.425 24.8991 20.9375 24.6867C20.45 24.4743 19.9245 24.3631 19.3928 24.36" fill="#060606"/>
<path d="M37.2682 24.737C36.6701 24.4521 36.0157 24.3052 35.3532 24.3071C34.8113 24.2856 34.2706 24.3732 33.7632 24.5645C33.2558 24.7559 32.7919 25.0472 32.3991 25.4211C32.0063 25.795 31.6926 26.244 31.4765 26.7414C31.2605 27.2388 31.1465 27.7746 31.1412 28.3169C31.136 28.8592 31.2397 29.397 31.4461 29.8985C31.6526 30.3999 31.9576 30.8549 32.3431 31.2363C32.7286 31.6177 33.1868 31.9179 33.6905 32.119C34.1941 32.3201 34.733 32.418 35.2752 32.407C36.0066 32.4013 36.7275 32.2322 37.3852 31.912C37.6902 31.7629 37.9822 31.5886 38.2582 31.3911V33.41C38.1302 33.4645 38.0079 33.5315 37.8932 33.61C37.0723 33.9841 36.1771 34.1667 35.2752 34.144C34.4949 34.1855 33.7143 34.0665 32.9818 33.7944C32.2492 33.5223 31.5803 33.1028 31.0163 32.562C30.4522 32.0211 30.0051 31.3703 29.7026 30.6498C29.4 29.9293 29.2484 29.1544 29.2572 28.373C29.2572 25.025 31.8622 22.589 35.4452 22.589C36.0608 22.5865 36.6741 22.6652 37.2692 22.823C37.6427 22.9198 37.9956 23.0831 38.3112 23.3051V25.428C37.9902 25.1605 37.6408 24.9291 37.2692 24.7381" fill="#060606"/>
<path d="M48.5506 34.234C47.405 34.2098 46.2919 33.8485 45.3505 33.1954C44.409 32.5422 43.6809 31.6261 43.2571 30.5615C42.8334 29.4969 42.7327 28.331 42.9677 27.2095C43.2027 26.088 43.763 25.0607 44.5786 24.2558C45.3942 23.4509 46.4288 22.9042 47.5533 22.684C48.6778 22.4638 49.8423 22.5798 50.9012 23.0176C51.9601 23.4554 52.8665 24.1955 53.5072 25.1455C54.1479 26.0955 54.4945 27.2132 54.5036 28.359C54.5071 29.1381 54.355 29.9101 54.0562 30.6296C53.7573 31.3492 53.3177 32.0017 52.7631 32.549C52.2086 33.0963 51.5503 33.5272 50.8269 33.8166C50.1035 34.106 49.3296 34.2479 48.5506 34.234V34.234ZM48.6416 24.36C47.8359 24.3274 47.0387 24.5355 46.3517 24.9577C45.6647 25.3799 45.119 25.997 44.7841 26.7306C44.4493 27.4641 44.3404 28.2807 44.4714 29.0763C44.6024 29.872 44.9674 30.6106 45.5198 31.198C46.0722 31.7854 46.787 32.1951 47.5731 32.3747C48.3591 32.5543 49.1809 32.4958 49.9336 32.2066C50.6863 31.9174 51.3359 31.4106 51.7994 30.7508C52.263 30.091 52.5196 29.3082 52.5366 28.502C52.5661 27.9711 52.4875 27.4397 52.3054 26.9401C52.1232 26.4405 51.8415 25.9832 51.4773 25.5958C51.113 25.2084 50.6738 24.8991 50.1863 24.6867C49.6988 24.4743 49.1733 24.3631 48.6416 24.36" fill="#060606"/>
<path d="M64.6902 34.234C63.5446 34.2098 62.4316 33.8485 61.4901 33.1954C60.5487 32.5422 59.8206 31.6261 59.3968 30.5615C58.973 29.4969 58.8723 28.331 59.1074 27.2095C59.3424 26.088 59.9027 25.0607 60.7183 24.2558C61.5338 23.4509 62.5685 22.9042 63.693 22.684C64.8174 22.4638 65.9819 22.5798 67.0408 23.0176C68.0997 23.4554 69.0062 24.1955 69.6469 25.1455C70.2876 26.0955 70.6341 27.2132 70.6432 28.359C70.6468 29.1381 70.4947 29.9101 70.1958 30.6296C69.8969 31.3492 69.4573 32.0017 68.9028 32.549C68.3482 33.0963 67.6899 33.5272 66.9665 33.8166C66.2431 34.106 65.4692 34.2479 64.6902 34.234ZM64.7902 24.36C63.9845 24.3274 63.1874 24.5355 62.5004 24.9577C61.8134 25.3799 61.2677 25.997 60.9328 26.7306C60.5979 27.4641 60.4891 28.2807 60.6201 29.0763C60.7511 29.872 61.1161 30.6106 61.6684 31.198C62.2208 31.7854 62.9356 32.1951 63.7217 32.3747C64.5078 32.5543 65.3296 32.4958 66.0823 32.2066C66.835 31.9174 67.4845 31.4106 67.9481 30.7508C68.4117 30.091 68.6683 29.3082 68.6852 28.502C68.7148 27.9711 68.6361 27.4397 68.454 26.9401C68.2719 26.4405 67.9902 25.9832 67.6259 25.5958C67.2616 25.2084 66.8224 24.8991 66.335 24.6867C65.8475 24.4743 65.3219 24.3631 64.7902 24.36" fill="#060606"/>
<path d="M85.4271 34.312L77.2852 26.561V34.012H75.4102V22.484H75.5662L83.7731 30.065V22.784H85.6232V34.312H85.4271Z" fill="#060606"/>
<path d="M83.7864 6.474H68.8584V8.272H83.7864V6.474Z" fill="#060606"/>
<path d="M80.9595 13.224L70.3955 2.78805L71.6855 1.52405L82.2365 11.945L80.9595 13.224Z" fill="#060606"/>
<path d="M77.2212 0H75.4102V14.746H77.2212V0Z" fill="#060606"/>
<path d="M87.499 33.009V33.243H87.877V34.285H88.151V33.243H88.5291V33.009H87.499ZM89.609 33.009L89.322 33.882L89.022 33.009H88.631V34.286H88.892V33.4L89.205 34.286H89.426L89.739 33.386V34.286H90V33.009H89.609Z" fill="#060606"/>
</g>
<defs>
<clipPath id="clip0_85:23">
<rect width="90.0004" height="35" fill="white"/>
</clipPath>
</defs>
</svg>
