<svg xmlns="http://www.w3.org/2000/svg" viewBox="0 0 893 232.1"><title>level_sleep_l</title><path d="M893,9.3c-8.5-.6-14.4,3.7-19.5,9.8-6.9,8.4-10.4,18.1-11.8,29-1.9,14.9-.4,29.1,7,42.2,5.2,9.3,12.1,17.3,24.3,17v9c-28.6,1.3-53.5-21.2-57.8-48.2-5-31.4,14.2-60.9,44.5-66.8C883.1.2,893,0,893,0Z" fill="#ddd9d7"/><path d="M0,77.3H31.3c1.4,2.1.8,4.1.8,6,.1,29,0,58,0,87,0,12.9.2,13.1,13.1,15.3a14.5,14.5,0,0,1-.3,8.7H0v-9l4-.4c8-1.3,9-2.5,9-10.7V95.5c0-5.9-1.6-8-7-9-2-.3-4-.1-6-.2ZM759.1,222.2c-2.9-1-5-2.6-4.9-6,.3-23.2-1-46.3.9-69.5.5-6.6,2.4-13.1,7-18.3,7.5-8.7,19.6-8.3,26,1.3s7.9,22.7,6,35c-1.5,10.2-5.2,19-16.6,22.3,0,3-.8,5.9.4,9a39,39,0,0,0,19.5-5.8c19.9-12.4,23.6-44.7,7.5-63.5-11.6-13.5-37.6-21-53-.8a1.6,1.6,0,0,1-1.7.8c-.5-3.3-1.1-6.5-1.6-9.8H721.3c-.1,1.6-.3,2.9-.3,4.1s-.4,3,.6,4.7l2.2.3c9.1.8,10.3,2.1,10.3,11v75.4c0,8.8-1.5,10.4-10.3,11l-2.6.3c-.2,3-.6,5.7.3,8.4h49a18.3,18.3,0,0,0-.1-8.4C766.6,223.2,762.8,223.6,759.1,222.2ZM436.5,189.5c13.1,7,26.8,7.5,40.5,2.4,7.8-2.8,12-9.2,12.9-17.5s-1.8-15.7-9.4-20.5c-5.8-3.6-12.2-5.3-18.7-6.6s-12.8-2.4-18.8-4.9c-4.1-1.7-7.4-4.3-6.8-9.3s4.4-6.9,8.7-7.6c7.7-1.3,15.3-.5,22.2,3.7s8.3,9.7,10.1,16c3.1.2,5.9.4,8.5-.8V116.6h-7.8c-1.5,2-1.5,4.7-4,5.8s-3.7-1.1-5.4-1.9c-11.4-5.6-23.2-7.2-35.4-3-8.1,2.7-13,8.5-13.9,17.2s1.9,16.3,10,21.2c5.7,3.4,11.9,5,18.3,6.4s14.1,2.5,20.5,5.9,6.7,10.8.7,14.9a14.5,14.5,0,0,1-7,2.3c-16.4,1.5-26.5-4.9-34.3-21.6l-8.1.9v29.2a28.1,28.1,0,0,0,8.2,0c1.5-2.1,1.7-4.8,4.5-6.7Zm173.4-9.3c-14,12.9-32.6,7.9-37.9-10.4a58.1,58.1,0,0,1-1.4-24.2c.9-5.9,2.3-11.4,5.9-16.2,6.1-8.2,17.1-9.2,23.8-2,4.6,4.9,7,10.8,7.4,18.2H586.9c.3,3.1-.4,5.5.5,8h39.3c1.8-19.8-8.6-35.1-26.4-38.8a53,53,0,0,0-16.9-.6c-21.2,2.6-37.8,23.8-34.8,44.9,3.5,24.3,21.9,39.1,46.5,37.2,13.1-1,26.7-11.8,29.3-23.5-2.3-.7-4.6-1.8-7.4-1.4C614.8,174.3,612.8,177.5,609.9,180.2Zm-318.8.6c-11.2,9.8-27.3,8.7-33.8-3.3-8.1-15.1-7.8-31.1,0-46.4,4.1-8.2,14-11,20.9-6.7s10.7,11.8,11.1,21.2h-20c-.5,3.1-.9,5.5.3,8.4h39c1.3-18.3-6.7-32.4-21.2-37.7-7.1-2.6-14.5-3-22.1-2.1-21.6,2.6-38.2,24.2-34.8,45.8,3.9,24,23.2,38.8,47.4,36.2,12.5-1.3,25.8-12.1,28.4-23.3-2.4-.7-4.6-1.8-7.4-1.6A54,54,0,0,1,291.1,180.8Zm404.7-63.9c-13.8-5.3-27.5-4.6-40.2,3.6-16.2,10.4-22.8,32.7-15.2,50.3s28,29.3,47.3,24.9c12.6-2.9,20.9-10.7,26.3-22.7-3-.6-5.3-2.2-8.2-1.6-2.2,3.1-4.2,6.3-7.1,8.9C684.3,193,666.6,188.2,661,170c-2.6-8.1-2.6-16.4-1.4-24.7.8-5.8,2.2-11.4,6-16.2s13.3-8.6,19.5-4.8,10.7,12.2,11.7,21.4H676.3v8h39.4C717.1,136.7,709.5,122.2,695.8,116.9Zm-585.2.6c-28.4-12-58,5.2-59.9,35s28,52.3,55.7,41.6c9.9-3.8,16.6-11.1,20.7-21.1-3-.9-5.2-2-8.2-1.6a31.4,31.4,0,0,1-11.7,12.3c-10.8,6.4-23.5,4.5-29.1-5.4-8.7-15.7-8.5-32-.2-47.8,4.8-8.9,15.7-10.5,23.1-4.3,5.8,4.9,8.2,11.4,9,19.5H89c.5,3.1-.5,5.6.7,8h38.9C130.7,138.2,123.2,122.8,110.6,117.5Zm68.1,7.1c.1-2.7.6-5.3-.4-7.9H134.8a19.2,19.2,0,0,0-.1,8.6c7.6-.4,10.3,4.9,12.6,11,5.2,13.3,10.9,26.5,16.3,39.7l7.6,18h19.6c.5-1.1,1.1-2.2,1.5-3.2,7.8-18.9,15.8-37.7,23.3-56.7,2-4.9,4.7-7.9,9.9-8.5,1.1-.2,2.4.1,3.3-1.4s.6-4.9-.4-7.4h-33c-.2,3-.8,5.6.3,8.2,3.8,1,8.3-1,11.9,3.6-5.8,17-13.8,33.6-21,51.9-7.3-18.4-14.2-35.5-21-52.5C169.9,123.4,174.9,126.7,178.7,124.6Zm361.6,60.5c-9.2-1.4-10.2-2.5-10.2-11.8,0-30,.1-60,0-90,0-1.9.6-4-.6-5.8H498.1a25.6,25.6,0,0,0,.1,8.3l2.1.4c9.4.9,10.7,2.4,10.7,11.8v73.5c0,11.7-.3,12-11.9,13.8l-1,.6a21.1,21.1,0,0,0,.2,7.9h44.8a15.6,15.6,0,0,0,.2-8.3ZM355.8,185c-9-1.6-9.7-2.4-9.7-11.7,0-30,.1-60,0-90,0-1.9.6-4-.6-5.8H314.1a25.6,25.6,0,0,0,.1,8.3l2.2.4c9.2.9,10.5,2.3,10.5,11.4v74c0,11.7-.1,11.8-12,13.8-.3,0-.5.3-.9.7-.1,2.5-.4,5,.3,7.7h44.5a19.3,19.3,0,0,0-.1-8.3Z" fill="#149bd8"/></svg>