<?xml version="1.0" encoding="utf-8"?>
<!-- Generator: Adobe Illustrator 23.0.6, SVG Export Plug-In . SVG Version: 6.00 Build 0)  -->
<svg version="1.1" id="Layer_1" xmlns="http://www.w3.org/2000/svg" xmlns:xlink="http://www.w3.org/1999/xlink" x="0px" y="0px"
	 viewBox="0 0 373.8 57.3" style="enable-background:new 0 0 373.8 57.3;" xml:space="preserve">
<style type="text/css">
	.st0{fill:#0F1B33;}
</style>
<path class="st0" d="M45.2,0c0.1,0.1,0.2,0.1,0.3,0.1c2.8,0.1,5.6,0.8,8.2,1.9C56.5,3.3,59,5.2,61,7.5c2.4,2.7,4,6,4.8,9.5
	c0.3,1.1,0.4,2.3,0.5,3.5c0,0.6,0,1.2,0,1.8c0,1.8-0.3,3.5-0.9,5.2c0,0.1,0,0.2-0.1,0.3c0,0,0,0.1-0.1,0.1c-0.2,0-0.2-0.1-0.3-0.2
	c-1.1-1.9-2.5-3.6-4.2-5.1c-2.1-2-4.6-3.5-7.3-4.6c-1.7-0.7-3.5-1.1-5.4-1.4c-1.7-0.2-3.3-0.3-5-0.2c-2.9,0.2-5.8,0.9-8.4,2.1
	c-2.1,0.9-4.1,2.2-5.8,3.7c-1.8,1.6-3.4,3.4-4.6,5.4c0,0.1-0.1,0.2-0.2,0.3c-0.2-0.4-0.4-0.9-0.5-1.3c-0.4-1.3-0.6-2.6-0.6-4
	c-0.2-3.9,0.7-7.8,2.6-11.2c1.8-3.4,4.5-6.2,7.8-8.2c2.3-1.4,4.8-2.3,7.4-2.8c1-0.2,2-0.3,3-0.3c0.1,0,0.3,0,0.4-0.1L45.2,0z
	 M84.4,39.7c3.3,5.8,3.1,11.7,0.2,17.6c0.2,0.1,0.4,0.1,0.5,0c1-0.2,1.9-0.5,2.8-0.9c2.4-1.2,4.5-2.9,6.1-5.2c1.1-1.4,1.9-3,2.4-4.7
	c0.6-2,0.8-4.1,0.6-6.2c-0.1-1.5-0.5-3-1-4.4c-0.8-2.1-2-4.1-3.6-5.7c-1.4-1.4-3-2.6-4.8-3.4c-2.1-1-4.4-1.5-6.7-1.5
	c-0.8,0-1.6,0.1-2.4,0.2c-2,0.3-4,0.9-5.7,1.9c-1.2,0.6-2.2,1.5-3.1,2.5c-0.2,0.2-0.3,0.4-0.4,0.6C75.9,31.1,81.1,33.9,84.4,39.7z
	 M19.8,30.3c-0.6-0.7-1.2-1.3-2-1.8c-2.4-1.5-5.4-2-8.2-1.5c-2,0.3-3.8,1.1-5.3,2.4c-1.3,1.1-2.4,2.4-3.1,3.9c-0.6,1.3-1,2.6-1.1,4
	c-0.1,1.5,0,3,0.4,4.5c0.5,1.7,1.4,3.3,2.6,4.6c1.1,1.2,2.4,2.2,3.9,2.8c0.6,0.2,1.2,0.3,1.8,0.2c-0.1-0.2-0.2-0.4-0.2-0.5l-0.3-0.5
	c-0.9-2.2-1.2-4.5-0.8-6.8c0.4-2.3,1.4-4.5,2.9-6.3c2-2.3,4.6-3.8,7.6-4.4c0.6-0.1,1.2-0.2,1.9-0.3C19.9,30.5,19.8,30.4,19.8,30.3z"
	/>
<path class="st0" d="M373.8,29.8c-0.1,0.1-0.1,0.2-0.1,0.3c-0.1,1.8-0.6,3.6-1.6,5.1c-1,1.6-2.4,2.9-4.1,3.7c-1.3,0.6-2.7,1-4.2,1.1
	c-2,0.1-4,0-6,0.1h-3.4c-0.4,0-0.4,0-0.4-0.4v-22c0-0.7,0-0.6,0.6-0.6c2.7,0,5.4,0,8.2,0c2.2,0,4.4,0.6,6.3,1.7
	c2.2,1.3,3.8,3.4,4.3,5.9c0.2,0.6,0.3,1.3,0.3,2c0,0.1,0,0.2,0.1,0.3L373.8,29.8z M357.1,28.7v8.5c0,0.5,0,0.5,0.5,0.5h4.5
	c0.7,0,1.3-0.1,2-0.2c1.5-0.3,2.9-1,4-2.1c1-1.1,1.8-2.4,2.1-3.8c0.4-1.4,0.5-2.9,0.3-4.4c-0.1-0.8-0.2-1.6-0.5-2.4
	c-0.6-1.9-1.9-3.4-3.7-4.2c-1.3-0.6-2.7-0.9-4.1-0.9h-4.7c-0.4,0-0.4,0-0.4,0.4V28.7L357.1,28.7z M113.4,17.2h8.6c2,0,4,0.4,5.8,1.3
	c1.7,0.8,3.2,2.2,4.1,3.8c0.8,1.4,1.2,3,1.3,4.7c0.1,0.7,0.1,1.3,0.1,2c0,2.4-0.7,4.7-2,6.7c-1.1,1.6-2.6,2.8-4.3,3.6
	c-1.2,0.5-2.5,0.8-3.7,0.9c-0.6,0-1.3,0.1-1.9,0.1h-8L113.4,17.2z M116.6,28.7v8.7c0,0.4,0,0.4,0.4,0.4c2,0,4,0.1,6-0.1
	c1.3-0.1,2.6-0.6,3.7-1.4c1.4-1,2.4-2.3,2.9-3.9c0.4-1.4,0.6-2.9,0.6-4.3c0-1.2-0.2-2.4-0.7-3.5c-0.5-1.3-1.4-2.4-2.5-3.1
	c-1.4-1-3.1-1.5-4.9-1.6H117c-0.3,0-0.3,0-0.3,0.4L116.6,28.7L116.6,28.7z M306.9,40.5c-0.3-0.1-0.6-0.2-0.9-0.2
	c-2-0.3-3.9-1.1-5.4-2.5c-1.2-1.1-2-2.4-2.6-3.9c-0.5-1.3-0.8-2.7-0.9-4.1c-0.1-0.6-0.1-1.2-0.1-1.8c0-2,0.5-4.1,1.4-5.9
	c1.2-2.2,3.2-3.9,5.6-4.7c1-0.3,2-0.5,3.1-0.6c1.7-0.2,3.4,0,5.1,0.4c1.7,0.4,3.3,1.3,4.6,2.5c1,1,1.8,2.2,2.3,3.6
	c0.4,1.1,0.7,2.3,0.8,3.4c0.3,2.3,0,4.7-0.8,6.9c-1.2,3.4-4.1,5.9-7.6,6.5c-0.4,0.1-0.9,0.2-1.3,0.2c-0.1,0-0.1,0-0.2,0.1
	L306.9,40.5z M316.6,28.5c0-1-0.1-2-0.3-2.9c-0.3-1.5-1-2.9-2.1-4c-1.6-1.6-3.8-2.4-6.1-2.2c-0.5,0-1.1,0-1.6,0.1
	c-1.9,0.3-3.6,1.3-4.7,2.9c-1.1,1.6-1.6,3.5-1.6,5.4c0,0.7,0,1.5,0.1,2.2c0.1,1.5,0.6,3,1.3,4.3c0.9,1.6,2.5,2.8,4.3,3.3
	c1.4,0.4,2.8,0.4,4.2,0.2c2.8-0.3,5.1-2.2,5.9-4.9C316.5,31.5,316.7,30,316.6,28.5L316.6,28.5z M337.3,40.5c0.1-0.1,0.1-0.1,0.2-0.1
	c1.1-0.1,2.1-0.3,3.1-0.8c2.1-0.8,3.7-2.5,4.4-4.6c0.4-1,0.5-2.1,0.5-3.2v-14c0-0.7,0.1-0.6-0.6-0.6h-1.9c-0.6,0-0.6-0.1-0.6,0.6
	v13.6c0,0.7-0.1,1.4-0.2,2.1c-0.4,2.1-1.9,3.8-4,4.3c-1.5,0.4-3.1,0.4-4.6,0c-1.6-0.4-2.9-1.6-3.5-3.2c-0.3-1-0.5-2-0.5-3v-14
	c0-0.2-0.1-0.3-0.3-0.3h-2.6c-0.2,0-0.3,0.1-0.3,0.3v14.3c0,0.7,0.1,1.4,0.2,2.2c0.3,1.3,0.8,2.5,1.7,3.6c1.3,1.5,3.2,2.5,5.2,2.8
	c0.3,0,0.7,0.1,1,0.2L337.3,40.5z M260.5,40.5c0.1-0.1,0.2-0.1,0.3-0.1c0.3,0,0.7-0.1,1-0.2c2.2-0.4,4.2-1.6,5.7-3.3
	c0.6-0.7,1.1-1.5,1.5-2.3c0.1-0.2,0.1-0.3-0.1-0.3l-2.1-1c-0.2-0.1-0.3,0-0.5,0.2c-0.4,0.7-0.9,1.4-1.4,2.1
	c-0.8,0.8-1.7,1.5-2.8,1.9c-1.2,0.4-2.5,0.6-3.8,0.5c-1.4-0.1-2.7-0.6-3.8-1.4c-1.5-1.1-2.6-2.7-3.1-4.5c-0.3-1.3-0.5-2.7-0.4-4
	c0-1.3,0.3-2.6,0.7-3.9c0.7-2.1,2.4-3.7,4.5-4.3c1.5-0.4,3.1-0.5,4.6-0.2c1.6,0.2,3,1.1,4,2.3c0.3,0.4,0.6,0.9,0.8,1.3
	c0.2,0.3,0.2,0.3,0.5,0.2l2.2-0.8c0.1,0,0.2-0.1,0.3-0.2c-0.4-1-0.9-1.9-1.6-2.7c-1.2-1.3-2.9-2.2-4.7-2.6c-1.5-0.4-3.1-0.5-4.7-0.3
	c-1.1,0.1-2.2,0.3-3.3,0.7c-2.4,0.8-4.3,2.6-5.4,4.9c-0.7,1.5-1.1,3.1-1.2,4.7c-0.2,2,0,4,0.5,5.9c0.5,1.6,1.3,3.1,2.5,4.3
	c1.6,1.6,3.6,2.6,5.8,2.9c0.3,0,0.7,0.1,1,0.2L260.5,40.5z M153.2,30.4l6.4,9.7c-0.1,0.1-0.2,0.1-0.3,0.1h-2.8
	c-0.3,0-0.5-0.1-0.6-0.3c-1.1-1.8-2.2-3.5-3.3-5.3c-0.7-1.2-1.5-2.3-2.2-3.5c-0.1-0.3-0.4-0.4-0.7-0.4h-6.4c-0.2,0-0.3,0.1-0.3,0.3
	c0,0.1,0,0.2,0,0.3V40c0,0.1-0.1,0.2-0.2,0.2H140c-0.2,0-0.3-0.1-0.3-0.3V17.8c0-0.6-0.1-0.6,0.6-0.6H151c1.3,0,2.6,0.2,3.9,0.7
	c2,0.7,3.4,2.5,3.8,4.5c0.3,1.5,0.1,3-0.5,4.3c-0.9,1.8-2.5,3-4.4,3.4C153.5,30.2,153.3,30.3,153.2,30.4z M147.2,19.7h-3.9
	c-0.4,0-0.4,0-0.4,0.4v7.7c0,0.4,0,0.4,0.4,0.4c2.6,0,5.3,0.1,7.9-0.1c0.7,0,1.3-0.2,1.9-0.4c1-0.4,1.8-1.2,2.2-2.1
	c0.2-0.6,0.3-1.3,0.3-2c0-1.5-0.9-2.8-2.3-3.3c-0.8-0.3-1.6-0.5-2.4-0.5C149.7,19.7,148.4,19.7,147.2,19.7L147.2,19.7z M228.6,27.3
	l-1.9-2.8l-4.8-7c-0.1-0.2-0.4-0.4-0.7-0.4h-3.1c-0.7,0-0.6-0.1-0.6,0.6v22.1c0,0.3,0.1,0.3,0.3,0.3h1.9c0.6,0,0.6,0,0.6-0.6V24.8
	c0-1.4,0-2.8-0.1-4.3c0-0.1,0-0.2,0.1-0.4c0.2,0,0.2,0.2,0.3,0.3l5.7,7.6c0.8,1,1.5,2,2.3,3.1c0.2,0.3,0.3,0.3,0.5,0l1.4-1.9
	l5.8-7.9c0.3-0.4,0.6-0.8,0.9-1.2c0.1,0.1,0.1,0.2,0.1,0.3c0,0.7-0.1,1.3-0.1,2v17.4c0,0.3,0.1,0.3,0.3,0.3h1.9c0.6,0,0.6,0,0.6-0.6
	V17.5c0-0.4,0-0.4-0.4-0.4h-3.4c-0.2,0-0.4,0.1-0.5,0.3c-0.2,0.3-0.4,0.6-0.6,0.9c-2,3-4,5.9-6,8.9c-0.1,0.2-0.2,0.3-0.3,0.4
	C228.7,27.6,228.6,27.4,228.6,27.3z M165.1,39.7c0,0.5,0,0.5,0.5,0.5h17c0.6,0,0.6,0,0.6-0.5s0-1,0-1.5s0-0.5-0.6-0.5h-14.2
	c-0.1,0-0.2-0.1-0.2-0.2s0-0.2,0-0.3v-6.8c0-0.6,0-0.5,0.6-0.5h12.5c0.1,0,0.2-0.1,0.2-0.2c0,0,0,0,0,0v-2c0-0.2-0.1-0.3-0.3-0.3
	s-0.2,0-0.3,0h-12.2c-0.4,0-0.4,0-0.4-0.4v-6.6c0-0.4,0-0.4,0.4-0.4h13.7c0.2,0,0.3,0,0.3-0.3v-2c0-0.2-0.1-0.3-0.3-0.3h-16.7
	c-0.6,0-0.6,0-0.6,0.6V39.7z M188.6,40.1c0.1-0.3,0.2-0.7,0.4-1c1.6-4,3.2-7.9,4.8-11.8l3.8-9.2c0.1-0.2,0.2-0.5,0.3-0.7
	c0-0.2,0.2-0.3,0.4-0.2h3.1c0.3,0,0.3,0.1,0.4,0.3c0.8,2,1.6,4.1,2.4,6.1c1.6,3.9,3.2,7.8,4.7,11.8c0.6,1.5,1.2,2.9,1.8,4.4l0.1,0.1
	c0.1,0.3,0.1,0.3-0.2,0.3h-2.4c-0.5,0-0.5,0-0.7-0.5l-1.2-3c-0.4-1-0.8-1.9-1.1-2.9c-0.1-0.2-0.3-0.4-0.5-0.4h-9.7
	c-0.3,0-0.5,0.1-0.6,0.4c-0.8,2-1.6,4-2.3,5.9c-0.1,0.4-0.1,0.4-0.6,0.4H189C188.9,40.2,188.7,40.2,188.6,40.1L188.6,40.1z
	 M199.8,19.7c-0.2,0.3-0.3,0.6-0.4,0.9c-1.1,3.3-2.4,6.4-3.6,9.6c-0.1,0.2-0.2,0.5-0.2,0.7c0.9,0.1,8.1,0,8.4,0
	C202.6,27.2,201,23.5,199.8,19.7z M277.8,39.7c0,0.5,0,0.5,0.5,0.5h14.1c0.2,0,0.3-0.1,0.3-0.3v-2c0-0.2-0.1-0.3-0.3-0.3h-10.7
	c-0.7,0-0.6,0.1-0.6-0.6V17.5c0-0.3,0-0.3-0.4-0.3h-2.3c-0.5,0-0.5,0-0.5,0.5L277.8,39.7L277.8,39.7z"/>
</svg>
