<?xml version="1.0" encoding="utf-8"?>
<!-- Generator: Adobe Illustrator 23.0.1, SVG Export Plug-In . SVG Version: 6.00 Build 0)  -->
<svg version="1.1" id="Layer_1" xmlns="http://www.w3.org/2000/svg" xmlns:xlink="http://www.w3.org/1999/xlink" x="0px" y="0px"
	 viewBox="0 0 2117.5 769" style="enable-background:new 0 0 2117.5 769;" xml:space="preserve">
<title>plushbeds_l</title>
<path d="M862.5,398c6.3,8,16.6,4.5,20.5,1.4l60.1-47.8l337.8-276.4c4-3.1-1.8-5.2-5.8-2.1L927.3,331.8l-61.2,45.9
	C862.2,380.9,856.2,390,862.5,398 M912.4,352.4c1.2-0.9,2.7-2,4.3-3c4.3-3.3,7.6-5.8,7.6-5.8c1.1-0.9,5.6-2.7,8,0.4s-0.5,7-1.5,7.8
	l-7.9,6.3c-1.4,1.3-2.7,2.4-3.9,3.4c-0.4,0.4-37,28.5-37,28.5c-1,0.8-5.8,2.3-8.2-0.8s0.2-7.3,1.3-8.2L912.4,352.4"/>
<path d="M1201.7,0.9c0,0-41.1-0.8-99.5-0.8h-11.9l0.3-0.1c-94.3,0-106.9,0.9-107.2,0.9C851.8,1.9,782,41.5,758,106
	c-18.1,48.5-0.8,105.1,48.9,123.2c0,13.3,2.4,26.6,7,39.1c0.4,1.3,1.4,3.4,1.8,4.5c23.9,55.9,108,60.4,149.4,34.5
	c4.4-2.5,3.8-5.7-0.7-3C925.8,328,846,324.8,828.5,273.7c-0.3-1.1-1-3.6-1.2-4.3c-3.4-11.8-4.5-24.3-3-36.5
	c7.6,0.9,15.3,1.2,22.9,0.9c43.3-1.6,82.4-27.8,104.6-55.6c46.7-58.2-3.4-95-76.3-56.7c-37.8,20-61.3,57.7-66.6,82.4
	c-1.3,5.9-2.1,11.8-2.4,17.8c-34.3-20.9-43.3-71.1-29.6-107.2c21.1-56,88.2-93.8,210.1-93.3l3.1,0.2c18.6,0.1,28.4,12.2,29.8,30.3
	v358.8c0.5,31.2,21.3,41.5,35.5,43.6c0,0-16.8,0.4-37.5,0l-62.4,1.8v15.8h248.4v-15.8l-41.9-2.1h0.3c-20,0-31.5-16.2-31.6-36.1
	V274.4c23.7,3.7,53.2,6.6,76.9,6.6c107.9,0,172.3-68,172.3-141.9C1379.8,66.7,1331.8,0.9,1201.7,0.9 M897.3,129.9
	c63.5-35.9,87,1.7,49.1,46.7c-20.6,24.6-57.9,54.9-108.9,52.9c-4.4,0-8.7-0.5-13-1.3C829.1,193.1,857.9,151.9,897.3,129.9
	 M1177.3,254.8l-46.6,1.6V65.6c0-32.1-21.2-42.5-35.6-44.7c0,0,21.3-0.6,45.6,0.2l11.2,0.2l25.4,1.3c56.9,1.6,88,47.9,88,117.2
	S1234.2,253.2,1177.3,254.8"/>
<path d="M48.6,703.8V739c0,13.8,5.1,23,15.2,27.6H13.4c9.8-4.7,14.7-10.6,14.7-17.9V643.4c0-7.3-4.9-13.3-14.7-17.9h47.3
	c38.6,0.1,57.9,13.2,57.9,39.2c-0.1,26-19.4,39.1-57.9,39.2L48.6,703.8z M48.6,634v52.9c0,5.7,3.2,8.5,9.7,8.5h4
	c22-0.8,33-11.1,33-30.8c0-19.9-11-30.1-33-30.6H48.6z M311.1,755.9c18,0,30.1-8.6,36.2-25.8v36.6h-94.9
	c9.7-4.5,14.6-10.5,14.6-17.9V643.4c0-7.4-4.8-13.4-14.5-17.9H303c-10.3,4.5-15.5,10.5-15.5,17.9v104.8c0,5.2,4,7.8,11.9,7.8H311.1z
	 M492.5,643.6c0-7.4-4.9-13.5-14.7-18.1h50.5c-10.2,4.7-15.3,13.9-15.3,27.8v60.8c0,27.2,12.4,40.8,37.2,40.8
	c23.6,0,35.4-13.4,35.4-40.2v-61.4c0-13.9-4.9-23.2-14.7-27.8H614c-10.3,4.5-15.5,10.5-15.5,18.1V717c0,14.7-4.4,27-13.1,36.8
	c-8.7,9.5-22.3,14.3-40.6,14.3c-18.4,0-31.8-4.8-40-14.3c-8.2-9.9-12.3-21.8-12.3-35.8V643.6z M765,685.5
	c-9.3-6.9-14.3-15.6-15.1-26c0-9.7,3.9-18,11.7-25c7.7-6.9,18.8-10.3,33.2-10.3c14.3,0,26,4.1,35,12.3v26.2
	c-7.2-10.9-13-18.3-17.5-22.5c-4.5-4.1-10.4-6.3-16.5-6.2c-8.2,0-14.2,2.1-17.9,6.2c-3.8,4.2-5.9,9.7-5.8,15.3
	c0.4,6.6,7.5,13.7,21.3,21.1c13.1,7,23.3,13.3,30.4,18.7c10.7,8.5,16.6,19.5,17.5,33c0,11.7-4.1,21.2-12.3,28.6
	c-8.5,7.4-21,11.1-37.6,11.1c-19.3,0-34-5.5-44-16.5v-35c9.1,17.9,16.5,29.4,22.1,34.4c5.4,5,12.3,7.6,20.5,7.5
	c9.8,0,17-2.1,21.7-6.2c4.4-3.8,6.7-10.3,7-19.5c-0.7-11.1-8.3-20.7-22.9-28.8C781.5,696.2,771.2,690,765,685.5z M1008.7,699.7v49.1
	c0,7.3,5.2,13.3,15.5,17.9h-50.5c9.7-4.5,14.5-10.5,14.5-17.9V643.4c0-7.4-4.8-13.4-14.5-17.9h50.5c-10.3,4.5-15.5,10.5-15.5,17.9
	v45.5h63.2v-45.5c0-7.4-4.8-13.4-14.5-17.9h49.5c-10.3,4.5-15.5,10.5-15.5,17.9v105.4c0,7.3,5.2,13.3,15.5,17.9h-49.5
	c9.7-4.5,14.5-10.5,14.5-17.9v-49.1H1008.7z M544.8,772.1c-19.6,0-34-5.3-43-15.7c-8.8-10.6-13.3-23.5-13.3-38.5v-74.4
	c0-5.8-4.1-10.5-12.4-14.5l-16.1-7.6h86.7l-16.7,7.6c-8.7,4-13,11.9-13,24.2v60.8c0,12.5,2.8,21.9,8.3,27.9
	c5.4,5.9,13.8,8.9,24.9,8.9c0,0,0,0,0,0c21.4,0,31.4-11.5,31.4-36.2v-61.4c0-12.3-4.1-20.3-12.4-24.2l-16.1-7.6h80.2l-17.6,7.7
	c-8.8,3.8-13.1,8.6-13.1,14.4V717c0,15.6-4.8,28.9-14.1,39.4C578.8,766.8,564.2,772.1,544.8,772.1z M490.7,629.5
	c3.9,4.1,5.9,8.8,5.9,14.1v74.4c0,13,3.8,24.2,11.4,33.3c7.4,8.5,19.8,12.9,36.9,12.9c17,0,29.7-4.4,37.6-13
	c8.1-9.1,12.1-20.3,12.1-34.1v-73.4c0-5.4,2-10.1,6-14.1h-18.1c4.7,5.8,7.1,13.8,7.1,23.8v61.4c0,36.5-21.4,44.2-39.4,44.2
	c0,0,0,0,0,0c-13.5,0-23.9-3.9-30.8-11.5c-6.9-7.5-10.3-18.7-10.3-33.3v-60.8c0-10,2.5-18,7.4-23.8H490.7z M791.5,772.1
	C791.5,772.1,791.5,772.1,791.5,772.1c-20.5,0-36.3-6-47-17.8l-1-1.1V700l7.6,14.8c8.9,17.4,16,28.6,21.2,33.3
	c4.7,4.4,10.5,6.5,17.8,6.5c0,0,0,0,0,0c8.8,0,15.2-1.7,19-5.2c3.5-3,5.4-8.6,5.6-16.4c-0.7-9.6-7.7-18.1-20.8-25.4
	c-14.4-7.9-24.9-14.2-31.2-18.8l0,0c-10.2-7.6-15.8-17.3-16.7-28.9l0-0.3c0-10.8,4.4-20.2,13.1-28c8.4-7.5,20.5-11.4,35.9-11.4
	c15.3,0,28,4.5,37.7,13.4l1.3,1.2V676l-7.3-11.1c-6.9-10.5-12.6-17.8-16.9-21.7c-3.8-3.4-8.6-5.2-13.7-5.1c-7.1,0-12.1,1.6-15,4.9
	c-3.1,3.4-4.8,7.8-4.7,12.5c0.2,2.9,3,9,19.2,17.7c13.2,7.1,23.7,13.5,31,19c11.7,9.2,18.1,21.3,19.1,35.9l0,0.3
	c0,12.8-4.6,23.4-13.6,31.6C822.5,768,809,772.1,791.5,772.1z M751.5,750c9.2,9.4,22.6,14.1,40,14.1c0,0,0,0,0,0
	c15.5,0,27.2-3.4,34.9-10.1c7.3-6.6,10.9-15,11-25.5c-0.9-12.4-6.1-22.2-16-30c-6.9-5.2-17-11.4-29.8-18.3
	c-15.2-8.2-22.9-16.2-23.4-24.4l0-0.2c-0.1-6.7,2.3-13.1,6.8-18.1c4.5-5,11.5-7.5,20.9-7.5c7.1-0.1,13.9,2.4,19.2,7.2
	c3.1,2.8,6.7,7,10.8,12.6v-11.6c-8.1-6.8-18.3-10.1-31-10.1c-13.4,0-23.6,3.1-30.5,9.3c-7,6.2-10.4,13.4-10.4,21.9
	c0.7,9.2,5.2,16.7,13.5,22.9c6.1,4.4,16.3,10.5,30.4,18.2c15.8,8.8,24.2,19.6,24.9,32.1l0,0.2l0,0.2c-0.3,10.3-3.1,17.8-8.4,22.4
	c-5.4,4.7-13.5,7.2-24.3,7.2c0,0,0,0,0,0c-9.2,0-17-2.9-23.2-8.6c-4.3-3.9-9.3-10.9-15.4-21.5V750z M1125.5,770.7H955.6L972,763
	c8.2-3.8,12.2-8.5,12.2-14.3V643.4c0-5.8-4-10.4-12.2-14.3l-16.4-7.6h170.5l-17.6,7.7c-8.8,3.8-13.1,8.5-13.1,14.2v105.4
	c0,5.6,4.3,10.3,13.1,14.3L1125.5,770.7z M1012.7,703.7v45.1c0,5.6,4.3,10.3,13.1,14.3l15.2,6.8l14.6-6.8
	c8.2-3.8,12.2-8.5,12.2-14.3v-45.1H1012.7z M1070.2,762.7h23.3c-4.1-4-6.1-8.7-6.1-13.9V643.4c0-5.3,2-9.9,6-13.9h-23.1
	c3.8,4,5.7,8.6,5.7,13.9v49.5h-71.2v-49.5c0-5.3,2-9.9,6-13.9h-24.1c3.8,4,5.7,8.6,5.7,13.9v105.4c0,5.3-1.9,9.9-5.7,13.9h24.3
	c-4.1-4-6.1-8.7-6.1-13.9v-53.1h71.2v53.1C1075.9,754,1074,758.7,1070.2,762.7z M1012.7,684.9h55.2v-41.5c0-5.8-4-10.4-12.2-14.3
	l-14.4-6.7l-15.5,6.8c-8.8,3.8-13.1,8.5-13.1,14.2V684.9z M351.3,770.7h-117l16.4-7.6c8.2-3.8,12.2-8.5,12.2-14.3V643.4
	c0-5.8-4-10.4-12.2-14.3l-16.4-7.6h87.8l-17.6,7.7c-8.8,3.8-13.1,8.5-13.1,14.2v104.8c0,1.1,0,3.8,7.9,3.8h11.7
	c16.3,0,26.9-7.6,32.4-23.2l7.8-21.9V770.7z M265.3,762.7h78v-16.9c-7.5,9.4-18.3,14.1-32.2,14.1h-11.7c-13.9,0-15.9-7.4-15.9-11.8
	V643.4c0-5.3,2-9.9,6-13.9h-24.2c3.8,4,5.7,8.6,5.7,13.9v105.4C271,754,269.1,758.7,265.3,762.7z M82.2,770.6H-4.4l16-7.6
	c8.4-4,12.4-8.7,12.4-14.3V643.4c0-5.7-4.1-10.3-12.4-14.3l-16.1-7.6h65c20,0.1,35.4,3.6,45.7,10.6c10.8,7.3,16.2,18.3,16.2,32.6
	c-0.1,14.4-5.6,25.3-16.3,32.6c-10.3,7-25.6,10.5-45.5,10.6h-8.1V739c0,12.2,4.2,20,12.9,24L82.2,770.6z M26.2,762.6h25.7
	c-4.9-5.8-7.3-13.7-7.3-23.6v-39.2h16.1c36.1-0.1,53.8-11.6,53.9-35.2c0-23.5-17.7-35-54-35.1H26.2c3.9,4,5.8,8.7,5.8,13.9v105.4
	C32.1,754,30.1,758.6,26.2,762.6z M62.4,699.5h-4.1c-8.7,0-13.7-4.6-13.7-12.5V630h17.7c30.6,0.7,37,19.2,37,34.6
	C99.3,679.9,92.9,698.4,62.4,699.5L62.4,699.5z M52.6,638v48.9c0,2.5,0.4,4.5,5.7,4.5h3.9c19.8-0.7,29.1-9.3,29.1-26.8
	c0-17.7-9.2-26.1-29.1-26.6L52.6,638z"/>
<path d="M1333.2,625.5c26.4,0.1,39.6,11.5,39.6,34.1c0,13.9-7.2,24.2-21.7,31c21.5,3.3,32.5,15.4,33,36.2
	c0,26.6-15.6,39.8-46.7,39.8h-64.8c9.7-4.5,14.5-10.5,14.5-17.9V643.4c0-7.4-4.8-13.4-14.5-17.9H1333.2z M1329.7,686.5
	c14.6-1.2,21.9-9.7,21.9-25.5c0-17.9-10.4-27.1-31.2-27.6h-12.7v53.1H1329.7z M1307.6,697.3v48.9c0,8,5.4,11.9,16.3,11.9h4.4
	c22-0.1,33-10.1,33-30c0-20-9-30.3-27-30.8L1307.6,697.3z M1554,699.1v48.7c0,5.4,3.1,8.2,9.3,8.2h28.7c17.9,0,29.9-8.9,36-26.7
	v37.4h-109.2c9.8-4.7,14.7-10.6,14.7-17.9V643.4c0-7.3-4.9-13.3-14.7-17.9h102.8v37.4c-6.1-17.8-18.4-26.6-36.8-26.6H1554v52.1h32.4
	c7.3,0,13.6-3.6,18.9-10.7v31.2c-5.3-6.5-11.6-9.7-18.9-9.7L1554,699.1z M1813.6,625.5c22.5,0.7,39.6,7.1,51.1,19.3
	c11.5,12.3,17.3,29.7,17.3,52.1c0,21.2-5.8,38-17.3,50.3c-11.7,12.5-28.7,19-51.1,19.5h-52.7c9.7-4.5,14.5-10.5,14.5-17.9V643.4
	c0-7.4-4.8-13.4-14.5-17.9H1813.6z M1812.6,757.2c14.5-0.1,25.9-5.8,34.4-17.1c8.6-11.4,12.9-25.6,12.9-42.7
	c0-18-4.3-33.1-12.9-45.3c-8.3-11.9-19.8-17.9-34.4-17.9h-16.7V748c0,6.1,4.4,9.1,13.3,9.1L1812.6,757.2z M2041.1,685.6
	c-9.3-6.9-14.3-15.6-15.1-26c0-9.7,3.9-18,11.7-25c7.7-6.9,18.8-10.3,33.2-10.3c14.3,0,26,4.1,35,12.3v26.2
	c-7.2-10.9-13-18.3-17.5-22.5c-4.5-4.1-10.4-6.3-16.5-6.3c-8.2,0-14.2,2.1-17.9,6.2c-3.8,4.2-5.9,9.7-5.8,15.3
	c0.4,6.6,7.5,13.6,21.3,21.1c13.1,7,23.3,13.3,30.4,18.7c10.7,8.5,16.6,19.5,17.5,33c0,11.7-4.1,21.2-12.3,28.6
	c-8.5,7.4-21,11.1-37.6,11.1c-19.3,0-34-5.5-43.9-16.5v-35c9.1,17.9,16.5,29.4,22.1,34.4c5.4,5,12.3,7.6,20.5,7.5
	c9.8,0,17-2.1,21.7-6.2c4.4-3.8,6.7-10.3,7-19.5c-0.7-11.1-8.3-20.7-22.9-28.8C2057.7,696.2,2047.4,690.1,2041.1,685.6z"/>
</svg>
