<svg width="160" height="30" viewBox="0 0 160 30" fill="none" xmlns="http://www.w3.org/2000/svg">
<path d="M0 7.44998H3.33V10.09H3.41C4.11629 9.05576 5.0654 8.21048 6.17419 7.62819C7.28298 7.04591 8.51763 6.74437 9.77 6.74998C13.43 6.74998 17.77 9.11998 17.77 16.26V28.52H14.4V16.47C14.4 12.21 12.4 9.84998 9.26 9.84998C5.64 9.84998 3.33 12.41 3.33 17.3V28.52H0V7.44998ZM42.32 17.69C42.3198 18.1279 42.2931 18.5653 42.24 19H25.77C25.8175 20.8886 26.5856 22.6876 27.9169 24.0281C29.2481 25.3687 31.0417 26.1493 32.93 26.21C33.9373 26.2485 34.9382 26.0355 35.8426 25.5903C36.747 25.1451 37.5262 24.4817 38.11 23.66H41.93C41.1312 25.3491 39.8661 26.7746 38.284 27.7686C36.7018 28.7625 34.8684 29.2835 33 29.27C26.6 29.27 22.31 24.27 22.31 17.71C22.31 11.92 26.23 6.70998 32.31 6.70998C39.67 6.79998 42.32 13.08 42.32 17.69ZM25.81 16.07H38.81C38.7533 15.1807 38.5196 14.3118 38.1225 13.5141C37.7255 12.7164 37.173 12.0061 36.4977 11.4248C35.8223 10.8436 35.0377 10.4031 34.1898 10.1292C33.3419 9.85532 32.4478 9.75359 31.56 9.82998C30.0391 10.071 28.644 10.8182 27.6005 11.9506C26.557 13.083 25.9261 14.5345 25.81 16.07V16.07ZM65.48 12.86H61.77C60.97 11.11 59.2 9.78998 56.38 9.78998C52.56 9.78998 49.22 12.51 49.22 17.97C49.22 22.71 52.34 26.19 56.6 26.19C57.7617 26.2579 58.9154 25.9583 59.8972 25.3337C60.8791 24.709 61.6393 23.791 62.07 22.71H65.77C65.1822 24.6734 63.9562 26.3847 62.2862 27.5729C60.6163 28.7611 58.5976 29.3583 56.55 29.27C50.32 29.27 45.77 24.61 45.77 17.93C45.77 11.77 49.9 6.75998 56.38 6.75998C62.15 6.74998 64.8 10.44 65.48 12.86ZM68.26 7.44998H70.91V0.72998H72.61C72.832 0.738985 73.05 0.791674 73.2516 0.885034C73.4533 0.978393 73.6345 1.11059 73.785 1.27406C73.9354 1.43753 74.0522 1.62907 74.1285 1.83771C74.2049 2.04635 74.2394 2.268 74.23 2.48998V7.48998H79.63V10.38H74.23V21.48C74.23 24.91 75.23 25.83 77.4 25.83C78.2257 25.828 79.047 25.7102 79.84 25.48V28.34C78.8317 28.6593 77.7772 28.808 76.72 28.78C71.84 28.78 70.91 25.35 70.91 21.33V10.33H68.26V7.44998ZM103.67 28.52H100.34V25.71H100.26C99.3844 26.8262 98.2651 27.7273 96.9877 28.3443C95.7103 28.9614 94.3086 29.278 92.89 29.27C87.43 29.27 82.53 24.83 82.53 17.97C82.53 11.46 87.08 6.74998 93.1 6.74998C94.5083 6.7591 95.8945 7.10081 97.1457 7.74726C98.3969 8.39372 99.4777 9.32663 100.3 10.47V10.47V7.46998H103.63L103.67 28.52ZM93.36 26.19C97.43 26.19 100.69 22.52 100.64 18.12C100.64 13.12 97.4 9.80998 93.44 9.80998C88.38 9.78998 86 13.93 86 18C86 22.07 88.4 26.22 93.37 26.22L93.36 26.19ZM120.36 10.09C119.721 9.95701 119.072 9.88336 118.42 9.86998C115.51 9.86998 113.24 12.03 113.24 17.35V28.52H109.9V7.44998H113.23V10.09H113.31C113.826 9.10958 114.594 8.2838 115.534 7.69699C116.474 7.11019 117.552 6.78339 118.66 6.74998C119.223 6.73815 119.786 6.78169 120.34 6.87998L120.36 10.09ZM134.62 1.63998V29.27H160V15C160 7.62998 154.49 1.65998 147.69 1.65998H134.61L134.62 1.63998Z" fill="#26326B"/>
</svg>
