<svg width="130" height="23" viewBox="0 0 130 23" fill="none" xmlns="http://www.w3.org/2000/svg">
<path d="M13.9 15.8H4.4L1.8 22.6H0.5L8.7 0.800049H12L20.6 22.6H16.5L13.9 15.8ZM9 3.30005L4.7 14.8H13.5L9 3.30005Z" fill="#4C3043"/>
<path d="M38.1998 4.60005L32.9998 22.6H29.7998L22.7998 0.800049H26.7998L32.7998 19.3L38.0998 0.800049H40.9998L46.9998 19.3L52.3998 0.800049H53.5998L47.1998 22.6H43.9998L38.1998 4.60005Z" fill="#4C3043"/>
<path d="M69.8 15.8H60.3L57.8 22.6H56.5L64.7 0.800049H68L76.6 22.6H72.5L69.8 15.8ZM64.8 3.30005L60.5 14.8H69.3L64.8 3.30005Z" fill="#4C3043"/>
<path d="M88.4 12.4V22.6H84.5V0.800049H91.4C97.7 0.800049 100.9 2.70005 100.9 6.60005C100.9 9.70005 98.1 11.5 94.4 11.9V12C97.4 12.3 99.5 13.5 100.2 16.8L101.6 22.7001H97.6L96.1 16.4C95.4 13.2 93.9 12.5 91.2 12.5H88.4V12.4ZM88.4 11.4H91.4C95.3 11.4 96.9 9.40005 96.9 6.60005C96.9 3.80005 95.2 1.90005 91.4 1.90005H88.4V11.4Z" fill="#4C3043"/>
<path d="M122.7 15.8H113.1L110.6 22.6H109.3L117.5 0.800049H120.8L129.4 22.6H125.3L122.7 15.8ZM117.8 3.30005L113.5 14.8H122.3L117.8 3.30005Z" fill="#4C3043"/>
</svg>
