<svg xmlns="http://www.w3.org/2000/svg" width="815.559" height="366.755" viewBox="0 0 815.55872 366.75458"><path d="M14.828 207.364v86.8H0V77.937h52.152q33.36 0 50.968 15.445 17.683 15.445 17.658 45.15 0 30.119-19.718 49.475-19.694 19.384-55.138 19.358zm0-115.835v102.244h30.786q29.266 0 44.48-13.951 15.214-13.98 15.239-39.487 0-48.808-55.96-48.806zm230.709 202.635v-28.057h-.618q-16.063 31.74-49.732 31.764-54.674 0-54.674-68.884v-89.271h13.899v85.769q0 31.354 10.349 45.563 10.35 14.131 32.485 14.157 21.623 0 34.956-15.856 13.36-15.834 13.334-42.164v-87.47h13.901v154.448zm275.126-154.448l-49.787 126.698-3.603 10.4h-.618l-1.337-5.148-2.111-6.178-46.592-125.772h-42.956v-25.638q0-38.304 28.521-38.303c7.517 0 13.181 1.44 16.888 4.375V65.992c-4.326-1.903-9.781-2.881-16.321-2.881q-18.377 0-30.684 12.664-12.279 12.665-12.304 37.12v26.822h-49.957v-25.638q0-38.304 28.521-38.303c7.517 0 13.181 1.44 16.888 4.375V65.992c-4.326-1.903-9.781-2.881-16.321-2.881q-18.377 0-30.683 12.664-12.279 12.665-12.305 37.12v26.822h-27.8v12.665h27.8v141.782h13.899V152.381h49.957v141.782h13.899V152.381h32.245l53.699 140.599-14.365 34.235c-7.104 17.094-16.885 25.64-29.241 25.64-4.316.081-8.609-.634-12.665-2.111v13.9a32.47 32.47 0 0 0 12.046 2.111q16.14 0 26.412-10.09 10.268-10.118 18.687-30.942l75.268-186.007z" fill="#8f8f91" fill-rule="evenodd"></path><path d="M737.604 243.203H518.356c-3.702 0-6.703-3.001-6.703-6.703s3.001-6.703 6.703-6.703h219.248l.481-.008.246-.011a64.89 64.89 0 0 0 10.098-1.104l.212-.044a66.24 66.24 0 0 0 38.451-22.473c21.29-25.296 19.852-62.633-3.32-86.217-9.339-9.579-22.401-14.871-41.11-16.657-2.417-.231-4.52-1.75-5.498-3.972-6.513-14.796-15.854-27.121-25.627-33.814-10.635-7.281-25.119-10.973-43.05-10.973-3.421.005-6.838.24-10.228.706a73.07 73.07 0 0 0-5.733 1.015c-2.629.566-5.341-.493-6.891-2.691-6.395-9.071-16.391-21.949-29.32-29.025a91.19 91.19 0 0 0-43.623-11.123 90.17 90.17 0 0 0-62.881 25.256c-14.425 13.892-24.654 36.192-26.696 58.199-.319 3.446-3.209 6.082-6.67 6.084-20.133.011-35.812 5.416-46.604 16.065-2.469 2.433-4.741 5.057-6.796 7.848-2.194 2.98-6.388 3.619-9.37 1.426s-3.621-6.387-1.429-9.369c2.474-3.361 5.21-6.521 8.183-9.451 12.247-12.085 29.066-18.727 50.055-19.777 3.469-23.34 14.455-45.683 30.029-60.682A103.51 103.51 0 0 1 572.692 0a104.63 104.63 0 0 1 50.057 12.768c13.674 7.483 24.125 19.764 31.31 29.538a78.08 78.08 0 0 1 2.402-.36c3.986-.546 8.004-.823 12.026-.828 20.684 0 37.717 4.481 50.624 13.317 10.952 7.501 21.274 20.465 28.692 35.929 19.808 2.481 34.742 9.114 45.567 20.217 27.978 28.512 29.708 73.617 3.996 104.188a79.69 79.69 0 0 1-46.146 27.017 78.25 78.25 0 0 1-12.441 1.392c-.431.022-.822.025-1.176.025z" fill="#277bc1"></path></svg>