<svg id="Layer_1" data-name="Layer 1" xmlns="http://www.w3.org/2000/svg" viewBox="0 0 1925.781 609.063"><defs><style>.cls-1{fill:#342bbf;}</style></defs><path class="cls-1" d="M1537.082-751.57c25.791-73.921,50.99-146.142,76.284-218.64h99.071v325.5h-78.272v-191.28l-2.406-.438Q1598.9-740.508,1566-644.5h-57.875q-32.862-95.9-65.813-192.062l-2.394.575V-644.67H1362.29V-970.161h98.455Z" transform="translate(-495.265 971.14)"/><path class="cls-1" d="M1059.184-644.595H981.849L923.377-748.05H871.644v103.326H794.235v-325.85c4.648,0,9.074-.014,13.5,0,44.856.163,89.717-.019,134.566.647,21.756.322,42.749,5.19,62.179,15.531,21.893,11.651,37.123,29.106,44.9,52.689a131.629,131.629,0,0,1,.027,84.327c-8.549,25.922-25.879,44.133-50.416,55.7-1.848.872-3.705,1.727-6.136,2.859ZM871.628-816.4c20.324,0,40,.051,59.677-.054a59.577,59.577,0,0,0,9.058-1.158c22.371-3.61,34.894-18.3,35.169-41.207.279-23.193-11.488-38.344-33.916-42.085-21.4-3.569-43.081-.854-64.626-1.508-1.748-.053-3.752-.746-5.362.989Z" transform="translate(-495.265 971.14)"/><path class="cls-1" d="M2421.045-644.463h-77.331l-58.6-103.652H2233.57V-644.79h-77.731v-325c.47-.36.641-.606.81-.6,54.454.593,109.036-3.161,163.33,2.115,35.817,3.481,66.447,18.337,84.722,51.605,20.95,38.139,19.229,105.97-19.639,139.283-8.978,7.695-19.029,13.51-30.464,18.5ZM2233.657-902.636V-816.3c10.457,0,20.517.158,30.571-.04,12.877-.255,25.785.943,38.625-1.306,21.713-3.8,34.19-18.553,34.463-41.168.275-22.889-11.458-38.333-33.221-41.976C2280.857-904.683,2257.356-901.468,2233.657-902.636Z" transform="translate(-495.265 971.14)"/><path class="cls-1" d="M1173.521-839.1H1307.9v60.283H1173.582v66.359h152.949v67.693H1095.76v-325.49H1322.1v67.54H1173.521Z" transform="translate(-495.265 971.14)"/><path class="cls-1" d="M1967.118-778.709v66.355h153.131v67.638H1889.415V-970.273h226.4v67.665H1967.142v63.1h134.484v60.8Z" transform="translate(-495.265 971.14)"/><path class="cls-1" d="M572.575-748.385v103.761h-77.31V-970.056a8.8,8.8,0,0,1,1.968-.477c48.62.135,97.243-.031,145.857.6a135.839,135.839,0,0,1,62.224,15.39c22.458,11.819,37.858,29.754,45.6,53.838,8.79,27.356,8.915,55.049-.045,82.348-12.249,37.32-40.141,56.856-77,65.5-15.626,3.666-31.538,4.571-47.542,4.5C608.741-748.449,591.155-748.385,572.575-748.385Zm.195-67.744c23.281-1.039,46.05,1.688,68.647-1.551,22.471-3.22,34.952-18.171,35.255-41.061.307-23.191-11.477-38.414-33.84-42.152-21.4-3.577-43.08-.863-64.625-1.519-1.754-.054-3.742-.717-5.437.962Z" transform="translate(-495.265 971.14)"/><path class="cls-1" d="M1839.733-970.179v325.49h-77.071v-325.49Z" transform="translate(-495.265 971.14)"/><path class="cls-1" d="M649.618-396.456H618.4V-530.1h32.756V-482q11.37-13.894,29.6-13.9a39.012,39.012,0,0,1,30.319,13.49q12.091,13.491,12.092,36.41v.181q0,23.463-12.092,37.313t-30.861,13.851q-18.769,0-30.59-15.341Zm1.083-48.818q0,11.642,5.55,18.589a17.746,17.746,0,0,0,14.573,6.948,17.711,17.711,0,0,0,14.528-6.858q5.5-6.856,5.5-18.5v-.181q0-11.459-5.459-18.182a17.539,17.539,0,0,0-14.3-6.723,18.438,18.438,0,0,0-14.619,6.723q-5.775,6.723-5.775,18Z" transform="translate(-495.265 971.14)"/><path class="cls-1" d="M788.672-369.25q-7.85,7.175-23.461,7.174T740.125-366.5l3.339-23.1a34.21,34.21,0,0,0,13.806,3.338q6.315,0,9.385-2.255t5.323-7.761q-13.263-32.485-39.613-97.545h34.2q7.22,22.019,21.3,65.6,13.264-43.586,19.942-65.6h32.756q-3.7,9.837-17.19,45.93T803.2-394.11Q796.522-376.425,788.672-369.25Z" transform="translate(-495.265 971.14)"/><path id="nectar_l" data-name="nectar l" class="cls-1" d="M889.592-524.964h21.965v16.158h.5a51.908,51.908,0,0,1,42.162-20.45c24.238,0,52.514,14.391,52.514,58.069v74.731H984.773v-73.469c0-26-13.128-40.395-34.083-40.395-23.985,0-39.386,15.653-39.386,45.444v68.42H889.592ZM1169.329-462.6c0,2.524-.252,5.3-.5,7.826H1060.009c0,23.48,22.218,43.93,47.212,43.93a42.219,42.219,0,0,0,34.336-15.653H1166.8a65.038,65.038,0,0,1-58.825,34.336c-42.415,0-70.692-30.549-70.692-70.692,0-35.346,26-66.9,66.4-66.9C1151.909-529,1169.329-490.628,1169.329-462.6Zm-109.067-9.847h86.092a43.371,43.371,0,0,0-47.969-38.123A43.453,43.453,0,0,0,1060.262-472.45Zm262.316-19.692h-24.489c-5.3-10.857-16.916-18.683-35.6-18.683-25.248,0-47.465,16.663-47.465,49.989,0,29.034,20.7,50.241,48.727,50.241,20.955,0,30.8-10.351,36.1-21.207h24.49c-7.069,19.188-24.742,40.143-61.1,40.143-41.153,0-71.2-28.529-71.2-69.177,0-37.618,27.267-68.167,70.187-68.167C1300.614-529.256,1318.034-506.786,1322.578-492.142Zm18.431-32.822h17.42v-41.152h11.109a10.776,10.776,0,0,1,10.856,10.856v30.3h35.6v17.673h-35.6v67.915c0,20.955,6.564,26.509,20.955,26.509a69.05,69.05,0,0,0,16.158-2.02v17.421a70.665,70.665,0,0,1-20.7,2.777c-32.317,0-38.376-20.955-38.376-45.445v-67.157h-17.42Zm234.04,128.508h-21.965v-17.168h-.505a63.311,63.311,0,0,1-48.727,21.712c-36.1,0-68.419-27.014-68.419-68.924,0-39.638,30.043-68.42,69.934-68.42,24.237,0,38.375,12.371,47.717,22.723h.252v-18.431H1575.3v128.508Zm-68.167-14.139a48.757,48.757,0,0,0,48.222-49.231h0c0-30.549-21.46-50.747-47.717-50.747-33.326,0-49.232,25.247-49.232,49.989s15.906,49.989,48.727,49.989Zm178.5-98.463a74.2,74.2,0,0,0-12.876-1.262c-19.188,0-34.336,13.128-34.336,45.7v68.167H1616.2V-524.964h21.965v16.158h.505a41.921,41.921,0,0,1,35.346-20.45,79.408,79.408,0,0,1,11.109.758Zm94.424-51.5v168.65H1947.7v-87.1a81.512,81.512,0,0,0-81.548-81.548H1779.8Z" transform="translate(-495.265 971.14)"/></svg>