<svg width="19" height="18" viewBox="0 0 19 18" fill="none" xmlns="http://www.w3.org/2000/svg">
<path fill-rule="evenodd" clip-rule="evenodd" d="M8.9996 0C8.69686 0.063324 8.42147 0.264412 8.28475 0.603249L6.50936 4.99132C6.36678 5.34554 6.03475 5.58717 5.65194 5.61395L0.931238 5.94569C0.0347534 6.00871 -0.330481 7.13096 0.358972 7.70907L3.98202 10.7528C4.27499 10.9985 4.40194 11.3895 4.31014 11.7602L3.16757 16.3533C2.94882 17.2257 3.90389 17.9193 4.66757 17.4431L8.68124 14.9362C8.78085 14.8741 8.88827 14.831 8.9996 14.807V0Z" fill="#FFE145"/>
<path fill-rule="evenodd" clip-rule="evenodd" d="M9 14.8289C9.25 14.7747 9.51758 14.8178 9.74219 14.958L13.7559 17.465C14.5195 17.9411 15.4727 17.2475 15.2559 16.3752L14.1133 11.7821C14.0195 11.4113 14.1465 11.0203 14.4395 10.7746L18.0645 7.7309C18.7539 7.15279 18.3887 6.03054 17.4922 5.96753L12.7695 5.63578C12.3887 5.609 12.0566 5.36737 11.9141 5.01315L10.1387 0.625082C9.9375 0.130476 9.44141 -0.0706042 9 0.0218336V14.8289Z" fill="#CCCCCC"/>
</svg>
