<svg width="19" height="19" viewBox="0 0 19 19" fill="none" xmlns="http://www.w3.org/2000/svg">
<path d="M8.28463 1.29235C8.62168 0.458905 9.80169 0.458905 10.1387 1.29235L11.9133 5.68042C12.0566 6.03464 12.3892 6.27626 12.7703 6.30304L17.492 6.6348C18.3888 6.69781 18.7534 7.82006 18.0649 8.39817L14.44 11.4419C14.1474 11.6876 14.0204 12.0786 14.1127 12.4493L15.2563 17.0424C15.4735 17.9148 14.5188 18.6084 13.7562 18.1322L9.74132 15.6253C9.41723 15.4229 9.00614 15.4229 8.68205 15.6253L4.66713 18.1322C3.90456 18.6084 2.94991 17.9148 3.16712 17.0424L4.31068 12.4493C4.40299 12.0786 4.27596 11.6876 3.98335 11.4419L0.358428 8.39817C-0.33007 7.82006 0.0345713 6.69781 0.931382 6.6348L5.65306 6.30304C6.03421 6.27626 6.36678 6.03464 6.51003 5.68042L8.28463 1.29235Z" fill="#CCCCCC"/>
</svg>
